<?xml version="1.0" encoding="UTF-8" standalone="no"?>
<!-- Created with Inkscape (http://www.inkscape.org/) -->

<svg
   xmlns:dc="http://purl.org/dc/elements/1.1/"
   xmlns:cc="http://creativecommons.org/ns#"
   xmlns:rdf="http://www.w3.org/1999/02/22-rdf-syntax-ns#"
   xmlns:svg="http://www.w3.org/2000/svg"
   xmlns="http://www.w3.org/2000/svg"
   xmlns:sodipodi="http://sodipodi.sourceforge.net/DTD/sodipodi-0.dtd"
   xmlns:inkscape="http://www.inkscape.org/namespaces/inkscape"
   width="48"
   height="48"
   id="svg2"
   sodipodi:version="0.32"
   inkscape:version="0.92.2 (5c3e80d, 2017-08-06)"
   sodipodi:docname="Cat240.svg"
   inkscape:output_extension="org.inkscape.output.svg.inkscape"
   version="1.0">
  <defs
     id="defs4">
    <marker
       inkscape:stockid="Arrow1Mend"
       orient="auto"
       refY="0.0"
       refX="0.0"
       id="Arrow1Mend"
       style="overflow:visible;">
      <path
         id="path3278"
         d="M 0.0,0.0 L 5.0,-5.0 L -12.5,0.0 L 5.0,5.0 L 0.0,0.0 z "
         style="fill-rule:evenodd;stroke:#000000;stroke-width:1.0pt;marker-start:none;"
         transform="scale(0.4) rotate(180) translate(10,0)" />
    </marker>
    <marker
       inkscape:stockid="Arrow1Send"
       orient="auto"
       refY="0.0"
       refX="0.0"
       id="Arrow1Send"
       style="overflow:visible;">
      <path
         id="path3284"
         d="M 0.0,0.0 L 5.0,-5.0 L -12.5,0.0 L 5.0,5.0 L 0.0,0.0 z "
         style="fill-rule:evenodd;stroke:#000000;stroke-width:1.0pt;marker-start:none;"
         transform="scale(0.2) rotate(180) translate(6,0)" />
    </marker>
    <marker
       inkscape:stockid="Arrow1Lend"
       orient="auto"
       refY="0.0"
       refX="0.0"
       id="Arrow1Lend"
       style="overflow:visible;">
      <path
         id="path3272"
         d="M 0.0,0.0 L 5.0,-5.0 L -12.5,0.0 L 5.0,5.0 L 0.0,0.0 z "
         style="fill-rule:evenodd;stroke:#000000;stroke-width:1.0pt;marker-start:none;"
         transform="scale(0.8) rotate(180) translate(12.5,0)" />
    </marker>
    <marker
       inkscape:stockid="Arrow2Lend"
       orient="auto"
       refY="0.0"
       refX="0.0"
       id="Arrow2Lend"
       style="overflow:visible;">
      <path
         id="path3290"
         style="font-size:12.0;fill-rule:evenodd;stroke-width:0.62500000;stroke-linejoin:round;"
         d="M 8.7185878,4.0337352 L -2.2072895,0.016013256 L 8.7185884,-4.0017078 C 6.9730900,-1.6296469 6.9831476,1.6157441 8.7185878,4.0337352 z "
         transform="scale(1.1) rotate(180) translate(1,0)" />
    </marker>
    <linearGradient
       id="linearGradient3230">
      <stop
         style="stop-color:#99a5c3;stop-opacity:1;"
         offset="0"
         id="stop3232" />
      <stop
         id="stop3244"
         offset="0.67000002"
         style="stop-color:#99a5c3;stop-opacity:1;" />
      <stop
         style="stop-color:#51618c;stop-opacity:1;"
         offset="1"
         id="stop3234" />
    </linearGradient>
    <inkscape:perspective
       sodipodi:type="inkscape:persp3d"
       inkscape:vp_x="56.260924 : 521.79843 : 1"
       inkscape:vp_y="6.5672346e-14 : 1043.6872 : 0"
       inkscape:vp_z="854.33665 : 521.79843 : 1"
       inkscape:persp3d-origin="455.29879 : 338.74226 : 1"
       id="perspective10" />
    <inkscape:perspective
       id="perspective5858"
       inkscape:persp3d-origin="372.04724 : 350.78739 : 1"
       inkscape:vp_z="744.09448 : 526.18109 : 1"
       inkscape:vp_y="0 : 1000 : 0"
       inkscape:vp_x="0 : 526.18109 : 1"
       sodipodi:type="inkscape:persp3d" />
    <inkscape:perspective
       id="perspective2408"
       inkscape:persp3d-origin="372.04724 : 350.78739 : 1"
       inkscape:vp_z="744.09448 : 526.18109 : 1"
       inkscape:vp_y="0 : 1000 : 0"
       inkscape:vp_x="0 : 526.18109 : 1"
       sodipodi:type="inkscape:persp3d" />
  </defs>
  <sodipodi:namedview
     id="base"
     pagecolor="#ffffff"
     bordercolor="#666666"
     borderopacity="1.0"
     inkscape:pageopacity="0.0"
     inkscape:pageshadow="2"
     inkscape:zoom="14.083333"
     inkscape:cx="24.000001"
     inkscape:cy="24.000001"
     inkscape:document-units="px"
     inkscape:current-layer="g915"
     showgrid="false"
     inkscape:window-width="1450"
     inkscape:window-height="903"
     inkscape:window-x="832"
     inkscape:window-y="338"
     showguides="false"
     inkscape:window-maximized="0" />
  <metadata
     id="metadata7">
    <rdf:RDF>
      <cc:Work
         rdf:about="">
        <dc:format>image/svg+xml</dc:format>
        <dc:type
           rdf:resource="http://purl.org/dc/dcmitype/StillImage" />
        <dc:title></dc:title>
      </cc:Work>
    </rdf:RDF>
  </metadata>
  <g
     inkscape:label="Ebene 1"
     inkscape:groupmode="layer"
     id="layer1">
    <path
       style="display:inline;fill:#dd771f;fill-opacity:0.49803922;fill-rule:evenodd;stroke:none;stroke-width:1px;stroke-linecap:butt;stroke-linejoin:miter;stroke-opacity:1"
       d="M 23.2751,45.073591 C 18.594586,44.996191 2.4383146,27.796862 3.5773236,16.202479 4.1131966,10.747644 10.229338,6.7373737 15.310655,4.6824787 21.068227,2.3541057 28.276399,2.2801857 33.941767,4.8247017 38.718424,6.9700657 44.214296,11.256668 44.466211,16.486924 45.036858,28.334708 27.738481,45.1474 23.2751,45.073591 Z"
       id="path885-5"
       inkscape:connector-curvature="0"
       sodipodi:nodetypes="ssssss" />
    <g
       transform="matrix(0.71243505,0,0,0.6934681,6.1337798,0.39452679)"
       id="g894">
      <path
         style="color:#000000;clip-rule:nonzero;display:inline;overflow:visible;visibility:visible;opacity:1;isolation:auto;mix-blend-mode:normal;color-interpolation:sRGB;color-interpolation-filters:linearRGB;solid-color:#000000;solid-opacity:1;fill:#96cee0;fill-opacity:1;fill-rule:nonzero;stroke:#6fe16a;stroke-width:1.88976371;stroke-linecap:round;stroke-linejoin:round;stroke-miterlimit:4;stroke-dasharray:none;stroke-dashoffset:0;stroke-opacity:1;color-rendering:auto;image-rendering:auto;shape-rendering:auto;text-rendering:auto;enable-background:accumulate"
         d="m 7.4750982,25.495271 c 0.8851788,-4.858002 9.5164548,-4.72053 19.0507538,-6.537945 5.149511,-0.981593 10.584242,-0.225019 12.152705,2.965049 1.501869,3.054623 4.223403,5.654035 3.813332,8.08723 -0.820147,4.866385 -9.554206,8.968756 -18.94311,6.612459 C 18.463349,35.345792 6.6999607,30.488917 7.455027,25.614367"
         id="path873"
         inkscape:connector-curvature="0"
         sodipodi:nodetypes="cssssc" />
      <path
         sodipodi:nodetypes="cssssc"
         inkscape:connector-curvature="0"
         id="path4506"
         d="M 9.2306302,25.783318 C 10.027027,21.499801 17.7926,21.621016 26.370624,20.01852 c 4.633024,-0.865514 9.52266,-0.198409 10.933809,2.614416 1.351234,2.693397 3.799802,4.985415 3.430861,7.130871 -0.737888,4.290909 -8.595935,7.908152 -17.043147,5.8305 C 19.116777,34.468961 8.5332378,30.186438 9.2125721,25.88833"
         style="color:#000000;clip-rule:nonzero;display:inline;overflow:visible;visibility:visible;opacity:1;isolation:auto;mix-blend-mode:normal;color-interpolation:sRGB;color-interpolation-filters:linearRGB;solid-color:#000000;solid-opacity:1;fill:#96cee0;fill-opacity:1;fill-rule:nonzero;stroke:#b2b2b2;stroke-width:1.88976371;stroke-linecap:round;stroke-linejoin:round;stroke-miterlimit:4;stroke-dasharray:none;stroke-dashoffset:0;stroke-opacity:1;color-rendering:auto;image-rendering:auto;shape-rendering:auto;text-rendering:auto;enable-background:accumulate" />
      <path
         inkscape:connector-curvature="0"
         id="path831"
         d="M 13.108696,15.97826 12,18.913043 l 1.304348,3.130435 1.173913,-0.391305 -1.173913,-3.195652 0.652174,-2.021739 -0.391304,-2.804348 z"
         style="fill:#368a43;fill-opacity:1;fill-rule:evenodd;stroke:#244c24;stroke-width:0.1;stroke-linecap:butt;stroke-linejoin:miter;stroke-miterlimit:4;stroke-dasharray:none;stroke-opacity:1" />
      <path
         sodipodi:nodetypes="cccccccc"
         style="fill:#368a43;fill-opacity:1;fill-rule:evenodd;stroke:#244c24;stroke-width:0.10000001;stroke-linecap:butt;stroke-linejoin:miter;stroke-miterlimit:4;stroke-dasharray:none;stroke-opacity:1"
         d="m 15.847826,13.962685 -1.108696,3.689164 1.304348,3.935108 1.173913,-0.491889 -1.173913,-4.017089 0.652174,-2.541424 0.521739,-3.459984 z"
         id="path841"
         inkscape:connector-curvature="0" />
      <path
         sodipodi:nodetypes="cccccccc"
         inkscape:connector-curvature="0"
         id="path843"
         d="m 18.847826,14.845942 -1.108696,3.072441 1.304348,3.27727 1.173913,-0.409659 -1.173913,-3.345547 0.652174,-2.11657 -1.369565,-2.609801 z"
         style="fill:#368a43;fill-opacity:1;fill-rule:evenodd;stroke:#244c24;stroke-width:0.10000002;stroke-linecap:butt;stroke-linejoin:miter;stroke-miterlimit:4;stroke-dasharray:none;stroke-opacity:1" />
      <path
         sodipodi:nodetypes="cccccccc"
         style="fill:#368a43;fill-opacity:1;fill-rule:evenodd;stroke:#244c24;stroke-width:0.10000002;stroke-linecap:butt;stroke-linejoin:miter;stroke-miterlimit:4;stroke-dasharray:none;stroke-opacity:1"
         d="m 14.478261,13.737246 -1.108696,3.072441 1.304348,3.27727 1.173913,-0.409659 -1.173913,-3.345547 0.652174,-2.11657 0.130435,-4.2402359 z"
         id="path845"
         inkscape:connector-curvature="0" />
      <path
         style="fill:#368a43;fill-opacity:1;fill-rule:evenodd;stroke:#244c24;stroke-width:0.10000002;stroke-linecap:butt;stroke-linejoin:miter;stroke-miterlimit:4;stroke-dasharray:none;stroke-opacity:1"
         d="M 11.804348,18.620559 10.695652,20.579119 12,22.668249 13.173913,22.407108 12,20.274453 12.652174,18.925224 11.282609,17.261578 Z"
         id="path847"
         inkscape:connector-curvature="0"
         sodipodi:nodetypes="cccccccc" />
      <path
         transform="rotate(17.239965)"
         d="m 27.604515,11.100313 a 2.4456522,1.6630435 0 0 1 2.475601,-1.6367358 2.4456522,1.6630435 0 0 1 2.415301,1.6778788 2.4456522,1.6630435 0 0 1 -2.459308,1.648055 2.4456522,1.6630435 0 0 1 -2.431891,-1.666762"
         sodipodi:open="true"
         sodipodi:end="3.1438441"
         sodipodi:start="3.1573355"
         sodipodi:ry="1.6630435"
         sodipodi:rx="2.4456522"
         sodipodi:cy="11.126493"
         sodipodi:cx="30.049864"
         sodipodi:type="arc"
         id="path849"
         style="color:#000000;clip-rule:nonzero;display:inline;overflow:visible;visibility:visible;opacity:1;isolation:auto;mix-blend-mode:normal;color-interpolation:sRGB;color-interpolation-filters:linearRGB;solid-color:#000000;solid-opacity:1;fill:#c0c3c0;fill-opacity:1;fill-rule:nonzero;stroke:#42372e;stroke-width:0.1;stroke-linecap:round;stroke-linejoin:round;stroke-miterlimit:4;stroke-dasharray:none;stroke-dashoffset:0;stroke-opacity:1;color-rendering:auto;image-rendering:auto;shape-rendering:auto;text-rendering:auto;enable-background:accumulate" />
      <path
         style="color:#000000;clip-rule:nonzero;display:inline;overflow:visible;visibility:visible;opacity:1;isolation:auto;mix-blend-mode:normal;color-interpolation:sRGB;color-interpolation-filters:linearRGB;solid-color:#000000;solid-opacity:1;fill:#c0c3c0;fill-opacity:1;fill-rule:nonzero;stroke:#42372e;stroke-width:0.1;stroke-linecap:round;stroke-linejoin:round;stroke-miterlimit:4;stroke-dasharray:none;stroke-dashoffset:0;stroke-opacity:1;color-rendering:auto;image-rendering:auto;shape-rendering:auto;text-rendering:auto;enable-background:accumulate"
         id="path851"
         sodipodi:type="arc"
         sodipodi:cx="21.19429"
         sodipodi:cy="15.3768"
         sodipodi:rx="2.4456522"
         sodipodi:ry="1.6630435"
         sodipodi:start="3.1573355"
         sodipodi:end="3.1438441"
         sodipodi:open="true"
         d="m 18.748941,15.35062 a 2.4456522,1.6630435 0 0 1 2.475601,-1.636737 2.4456522,1.6630435 0 0 1 2.415301,1.677879 2.4456522,1.6630435 0 0 1 -2.459308,1.648055 2.4456522,1.6630435 0 0 1 -2.431891,-1.666762"
         transform="rotate(17.239965)" />
      <path
         transform="rotate(-11.790075)"
         d="m 12.235091,25.331879 a 2.4456522,1.6630435 0 0 1 2.475601,-1.636736 2.4456522,1.6630435 0 0 1 2.415301,1.677878 2.4456522,1.6630435 0 0 1 -2.459308,1.648055 2.4456522,1.6630435 0 0 1 -2.431891,-1.666761"
         sodipodi:open="true"
         sodipodi:end="3.1438441"
         sodipodi:start="3.1573355"
         sodipodi:ry="1.6630435"
         sodipodi:rx="2.4456522"
         sodipodi:cy="25.358059"
         sodipodi:cx="14.68044"
         sodipodi:type="arc"
         id="path853"
         style="color:#000000;clip-rule:nonzero;display:inline;overflow:visible;visibility:visible;opacity:1;isolation:auto;mix-blend-mode:normal;color-interpolation:sRGB;color-interpolation-filters:linearRGB;solid-color:#000000;solid-opacity:1;fill:#c0c3c0;fill-opacity:1;fill-rule:nonzero;stroke:#42372e;stroke-width:0.1;stroke-linecap:round;stroke-linejoin:round;stroke-miterlimit:4;stroke-dasharray:none;stroke-dashoffset:0;stroke-opacity:1;color-rendering:auto;image-rendering:auto;shape-rendering:auto;text-rendering:auto;enable-background:accumulate" />
      <path
         style="color:#000000;clip-rule:nonzero;display:inline;overflow:visible;visibility:visible;opacity:1;isolation:auto;mix-blend-mode:normal;color-interpolation:sRGB;color-interpolation-filters:linearRGB;solid-color:#000000;solid-opacity:1;fill:#c0c3c0;fill-opacity:1;fill-rule:nonzero;stroke:#42372e;stroke-width:0.1;stroke-linecap:round;stroke-linejoin:round;stroke-miterlimit:4;stroke-dasharray:none;stroke-dashoffset:0;stroke-opacity:1;color-rendering:auto;image-rendering:auto;shape-rendering:auto;text-rendering:auto;enable-background:accumulate"
         id="path855"
         sodipodi:type="arc"
         sodipodi:cx="27.336756"
         sodipodi:cy="13.255023"
         sodipodi:rx="2.4456522"
         sodipodi:ry="1.6630435"
         sodipodi:start="3.1573355"
         sodipodi:end="3.1438441"
         sodipodi:open="true"
         d="m 24.891407,13.228843 a 2.4456522,1.6630435 0 0 1 2.475601,-1.636736 2.4456522,1.6630435 0 0 1 2.415301,1.677878 2.4456522,1.6630435 0 0 1 -2.459308,1.648055 2.4456522,1.6630435 0 0 1 -2.431891,-1.666761"
         transform="rotate(16.033866)" />
      <path
         transform="rotate(-7.9336115)"
         d="M 6.1499601,24.159893 A 2.4456522,1.6630435 0 0 1 8.6255612,22.523157 2.4456522,1.6630435 0 0 1 11.040863,24.201036 2.4456522,1.6630435 0 0 1 8.5815543,25.84909 2.4456522,1.6630435 0 0 1 6.1496632,24.182329"
         sodipodi:open="true"
         sodipodi:end="3.1438441"
         sodipodi:start="3.1573355"
         sodipodi:ry="1.6630435"
         sodipodi:rx="2.4456522"
         sodipodi:cy="24.186073"
         sodipodi:cx="8.5953093"
         sodipodi:type="arc"
         id="path857"
         style="color:#000000;clip-rule:nonzero;display:inline;overflow:visible;visibility:visible;opacity:1;isolation:auto;mix-blend-mode:normal;color-interpolation:sRGB;color-interpolation-filters:linearRGB;solid-color:#000000;solid-opacity:1;fill:#c0c3c0;fill-opacity:1;fill-rule:nonzero;stroke:#42372e;stroke-width:0.1;stroke-linecap:round;stroke-linejoin:round;stroke-miterlimit:4;stroke-dasharray:none;stroke-dashoffset:0;stroke-opacity:1;color-rendering:auto;image-rendering:auto;shape-rendering:auto;text-rendering:auto;enable-background:accumulate" />
      <path
         inkscape:transform-center-y="1.7608814"
         inkscape:transform-center-x="0.84782504"
         style="color:#000000;clip-rule:nonzero;display:inline;overflow:visible;visibility:visible;opacity:1;isolation:auto;mix-blend-mode:normal;color-interpolation:sRGB;color-interpolation-filters:linearRGB;solid-color:#000000;solid-opacity:1;fill:#c0c3c0;fill-opacity:1;fill-rule:nonzero;stroke:#42372e;stroke-width:0.1;stroke-linecap:round;stroke-linejoin:round;stroke-miterlimit:4;stroke-dasharray:none;stroke-dashoffset:0;stroke-opacity:1;color-rendering:auto;image-rendering:auto;shape-rendering:auto;text-rendering:auto;enable-background:accumulate"
         id="path859"
         sodipodi:type="arc"
         sodipodi:cx="43.534409"
         sodipodi:cy="-15.982131"
         sodipodi:rx="2.4456522"
         sodipodi:ry="1.6630435"
         sodipodi:start="3.1573355"
         sodipodi:end="3.1438441"
         sodipodi:open="true"
         d="m 41.089059,-16.008311 a 2.4456522,1.6630435 0 0 1 2.475602,-1.636736 2.4456522,1.6630435 0 0 1 2.415301,1.677878 2.4456522,1.6630435 0 0 1 -2.459308,1.648055 2.4456522,1.6630435 0 0 1 -2.431891,-1.666761"
         transform="rotate(51.902085)" />
      <path
         transform="rotate(29.774143)"
         d="M 48.520113,6.206826 A 2.4456522,1.6630435 0 0 1 50.995714,4.5700897 2.4456522,1.6630435 0 0 1 53.411015,6.2479684 2.4456522,1.6630435 0 0 1 50.951707,7.8960232 2.4456522,1.6630435 0 0 1 48.519816,6.2292618"
         sodipodi:open="true"
         sodipodi:end="3.1438441"
         sodipodi:start="3.1573355"
         sodipodi:ry="1.6630435"
         sodipodi:rx="2.4456522"
         sodipodi:cy="6.233006"
         sodipodi:cx="50.965462"
         sodipodi:type="arc"
         id="path861"
         style="color:#000000;clip-rule:nonzero;display:inline;overflow:visible;visibility:visible;opacity:1;isolation:auto;mix-blend-mode:normal;color-interpolation:sRGB;color-interpolation-filters:linearRGB;solid-color:#000000;solid-opacity:1;fill:#c0c3c0;fill-opacity:1;fill-rule:nonzero;stroke:#42372e;stroke-width:0.1;stroke-linecap:round;stroke-linejoin:round;stroke-miterlimit:4;stroke-dasharray:none;stroke-dashoffset:0;stroke-opacity:1;color-rendering:auto;image-rendering:auto;shape-rendering:auto;text-rendering:auto;enable-background:accumulate"
         inkscape:transform-center-x="0.12209757"
         inkscape:transform-center-y="1.9505383" />
      <path
         inkscape:transform-center-y="2.5912183"
         inkscape:transform-center-x="0.15530786"
         style="color:#000000;clip-rule:nonzero;display:inline;overflow:visible;visibility:visible;opacity:1;isolation:auto;mix-blend-mode:normal;color-interpolation:sRGB;color-interpolation-filters:linearRGB;solid-color:#000000;solid-opacity:1;fill:#c0c3c0;fill-opacity:1;fill-rule:nonzero;stroke:#42372e;stroke-width:0.10003507;stroke-linecap:round;stroke-linejoin:round;stroke-miterlimit:4;stroke-dasharray:none;stroke-dashoffset:0;stroke-opacity:1;color-rendering:auto;image-rendering:auto;shape-rendering:auto;text-rendering:auto;enable-background:accumulate"
         id="path863"
         sodipodi:type="arc"
         sodipodi:cx="51.374104"
         sodipodi:cy="7.9917593"
         sodipodi:rx="3.145452"
         sodipodi:ry="2.1865044"
         sodipodi:start="3.1573355"
         sodipodi:end="3.1438441"
         sodipodi:open="true"
         d="M 48.229041,7.9573389 A 3.145452,2.1865044 0 0 1 51.413012,5.8054222 3.145452,2.1865044 0 0 1 54.519428,8.0114313 3.145452,2.1865044 0 0 1 51.356413,10.178229 3.145452,2.1865044 0 0 1 48.228659,7.9868365"
         transform="matrix(0.85843444,0.5129233,-0.48042486,0.87703589,0,0)" />
      <path
         inkscape:transform-center-y="1.5845036"
         inkscape:transform-center-x="-1.1440525"
         style="color:#000000;clip-rule:nonzero;display:inline;overflow:visible;visibility:visible;opacity:1;isolation:auto;mix-blend-mode:normal;color-interpolation:sRGB;color-interpolation-filters:linearRGB;solid-color:#000000;solid-opacity:1;fill:#c0c3c0;fill-opacity:1;fill-rule:nonzero;stroke:#42372e;stroke-width:0.1;stroke-linecap:round;stroke-linejoin:round;stroke-miterlimit:4;stroke-dasharray:none;stroke-dashoffset:0;stroke-opacity:1;color-rendering:auto;image-rendering:auto;shape-rendering:auto;text-rendering:auto;enable-background:accumulate"
         id="path865"
         sodipodi:type="arc"
         sodipodi:cx="30.938959"
         sodipodi:cy="40.341106"
         sodipodi:rx="2.4456522"
         sodipodi:ry="1.6630435"
         sodipodi:start="3.1573355"
         sodipodi:end="3.1438441"
         sodipodi:open="true"
         d="m 28.49361,40.314926 a 2.4456522,1.6630435 0 0 1 2.475601,-1.636736 2.4456522,1.6630435 0 0 1 2.415301,1.677879 2.4456522,1.6630435 0 0 1 -2.459308,1.648055 2.4456522,1.6630435 0 0 1 -2.431891,-1.666762"
         transform="rotate(-9.6379865)" />
      <path
         transform="rotate(-9.6379865)"
         d="M 4.6686077,33.755238 A 2.4456522,1.6630435 0 0 1 7.1442089,32.118502 2.4456522,1.6630435 0 0 1 9.5595102,33.79638 2.4456522,1.6630435 0 0 1 7.1002019,35.444435 2.4456522,1.6630435 0 0 1 4.6683109,33.777674"
         sodipodi:open="true"
         sodipodi:end="3.1438441"
         sodipodi:start="3.1573355"
         sodipodi:ry="1.6630435"
         sodipodi:rx="2.4456522"
         sodipodi:cy="33.781418"
         sodipodi:cx="7.1139569"
         sodipodi:type="arc"
         id="path867"
         style="color:#000000;clip-rule:nonzero;display:inline;overflow:visible;visibility:visible;opacity:1;isolation:auto;mix-blend-mode:normal;color-interpolation:sRGB;color-interpolation-filters:linearRGB;solid-color:#000000;solid-opacity:1;fill:#c0c3c0;fill-opacity:1;fill-rule:nonzero;stroke:#42372e;stroke-width:0.1;stroke-linecap:round;stroke-linejoin:round;stroke-miterlimit:4;stroke-dasharray:none;stroke-dashoffset:0;stroke-opacity:1;color-rendering:auto;image-rendering:auto;shape-rendering:auto;text-rendering:auto;enable-background:accumulate"
         inkscape:transform-center-x="-1.1440525"
         inkscape:transform-center-y="1.5845036" />
      <path
         inkscape:transform-center-y="0.98515122"
         inkscape:transform-center-x="-2.0168071"
         style="color:#000000;clip-rule:nonzero;display:inline;overflow:visible;visibility:visible;opacity:1;isolation:auto;mix-blend-mode:normal;color-interpolation:sRGB;color-interpolation-filters:linearRGB;solid-color:#000000;solid-opacity:1;fill:#c0c3c0;fill-opacity:1;fill-rule:nonzero;stroke:#42372e;stroke-width:0.10030433;stroke-linecap:round;stroke-linejoin:round;stroke-miterlimit:4;stroke-dasharray:none;stroke-dashoffset:0;stroke-opacity:1;color-rendering:auto;image-rendering:auto;shape-rendering:auto;text-rendering:auto;enable-background:accumulate"
         id="path869"
         sodipodi:type="arc"
         sodipodi:cx="-4.5050697"
         sodipodi:cy="36.827969"
         sodipodi:rx="3.3754361"
         sodipodi:ry="1.684603"
         sodipodi:start="3.1573355"
         sodipodi:end="3.1438441"
         sodipodi:open="true"
         d="m -7.8800875,36.801449 a 3.3754361,1.684603 0 0 1 3.4167708,-1.657954 3.3754361,1.684603 0 0 1 3.3335464,1.69963 3.3754361,1.684603 0 0 1 -3.3942838,1.66942 3.3754361,1.684603 0 0 1 -3.3564431,-1.688369"
         transform="matrix(0.90002915,-0.43582971,0.53211525,0.84667193,0,0)" />
      <path
         transform="rotate(-9.6379865)"
         d="m 10.051328,37.116921 a 2.4456522,1.6630435 0 0 1 2.475601,-1.636737 2.4456522,1.6630435 0 0 1 2.415302,1.677879 2.4456522,1.6630435 0 0 1 -2.459309,1.648055 2.4456522,1.6630435 0 0 1 -2.431891,-1.666762"
         sodipodi:open="true"
         sodipodi:end="3.1438441"
         sodipodi:start="3.1573355"
         sodipodi:ry="1.6630435"
         sodipodi:rx="2.4456522"
         sodipodi:cy="37.143101"
         sodipodi:cx="12.496677"
         sodipodi:type="arc"
         id="path871"
         style="color:#000000;clip-rule:nonzero;display:inline;overflow:visible;visibility:visible;opacity:1;isolation:auto;mix-blend-mode:normal;color-interpolation:sRGB;color-interpolation-filters:linearRGB;solid-color:#000000;solid-opacity:1;fill:#c0c3c0;fill-opacity:1;fill-rule:nonzero;stroke:#42372e;stroke-width:0.1;stroke-linecap:round;stroke-linejoin:round;stroke-miterlimit:4;stroke-dasharray:none;stroke-dashoffset:0;stroke-opacity:1;color-rendering:auto;image-rendering:auto;shape-rendering:auto;text-rendering:auto;enable-background:accumulate"
         inkscape:transform-center-x="-1.1440525"
         inkscape:transform-center-y="1.5845036" />
    </g>
    <g
       id="g915">
      <g
         transform="matrix(0.25548393,0,0,0.25548393,20.881095,14.889562)"
         style="display:inline"
         id="g872">
        <path
           inkscape:connector-curvature="0"
           id="path873-4"
           d="m 25.200737,40.050635 c -0.204492,-0.448815 -0.635105,-0.770043 -1.177733,-0.878568 -1.367394,-0.27348 -0.818847,-0.753847 1.571657,-1.376316 2.497182,-0.650244 4.045097,-1.370629 4.044839,-1.882428 -1.32e-4,-0.259918 -1.705363,-0.359466 -7.017638,-0.409679 -5.654314,-0.05345 -7.178668,-0.149694 -7.847335,-0.495474 -0.456429,-0.236031 -1.399938,-0.507281 -2.096687,-0.60278 -1.063279,-0.145739 -1.266817,-0.09881 -1.266817,0.292085 0,0.546094 1.070342,1.012719 2.322965,1.012719 0.611379,0 1.083498,0.231883 1.52993,0.751427 0.848999,0.988044 0.467697,1.351879 -1.416771,1.351879 -1.303462,0 -1.454581,0.06292 -1.454581,0.605651 0,1.04863 -0.330048,1.019206 -2.107581,-0.187892 -1.8351974,-1.24626 -1.9536346,-1.26024 -4.4112081,-0.520678 -0.9155646,0.275522 -1.266921,0.281728 -1.5217757,0.02687 C 3.9520531,37.337499 4.6883332,36.393415 5.6288626,36.100212 6.4048992,35.858287 6.6340033,35.47839 6.6392355,34.424836 6.6446396,33.336546 6.391944,33.074662 5.8249659,33.580959 4.4953129,34.768306 3.6853671,33.835445 4.5835552,32.151154 5.1002514,31.182242 5.1000054,31.179744 4.4346524,30.637449 3.4624458,29.845061 2.6101044,29.716976 1.6417158,30.217749 0.67639512,30.716935 0.18371451,30.369184 0.80024057,29.623805 1.306771,29.01141 3.8125226,27.866348 4.6804444,27.850654 c 0.3856061,-0.007 0.9795533,-0.167452 1.3198825,-0.356622 0.6342729,-0.352556 3.7280516,-4.720984 3.7280516,-5.264023 0,-0.597963 1.5295825,-2.954521 2.8196275,-4.344073 0.724293,-0.78016 1.515513,-1.802556 1.758267,-2.271991 0.242755,-0.469435 0.75742,-1.060601 1.143702,-1.313703 0.452193,-0.296288 0.770084,-0.835489 0.892569,-1.513959 0.286614,-1.587613 0.584223,-1.983096 1.732248,-2.301924 1.666797,-0.462901 2.051425,-0.362936 3.183848,0.827488 0.86914,0.913656 1.259277,1.121763 2.102962,1.121763 0.848935,0 1.222729,-0.202422 2.07146,-1.121763 1.119783,-1.212944 1.933923,-1.3960394 3.609803,-0.811825 0.985396,0.343512 1.438131,0.982204 1.438131,2.028838 0,0.381268 0.441532,1.221483 0.981543,1.867835 0.539848,0.646157 0.981543,1.306525 0.981543,1.467486 0,0.16096 0.484814,0.818618 1.077369,1.461462 0.592552,0.642843 1.191994,1.353167 1.332094,1.578498 0.517584,0.832465 2.142475,1.942692 2.843257,1.942692 0.798205,0 3.273535,1.097873 4.895686,2.171361 0.636597,0.421281 1.1672,1.061711 1.357588,1.638594 0.316248,0.958236 1.137342,1.381197 3.076926,1.584979 l 0.701102,0.07366 0.07806,3.517767 0.07805,3.517766 -1.059598,0.06138 c -0.582781,0.03376 -1.409498,0.133546 -1.837148,0.221747 -0.677903,0.139814 -0.816455,0.04875 -1.081152,-0.71055 -0.501291,-1.43801 -1.571772,-1.692056 -2.02018,-0.47943 -0.133552,0.361157 -0.341347,0.458464 -0.680647,0.318735 -1.250987,-0.515178 -1.446542,-0.469879 -2.004523,0.464342 -0.308982,0.517318 -1.222644,1.853703 -2.030361,2.969742 -1.112326,1.536919 -1.710672,2.105676 -2.466561,2.34458 -1.197552,0.378497 -1.690236,0.927897 -1.496493,1.668772 0.181664,0.694677 -0.03277,0.690195 -0.994429,-0.02081 -1.279183,-0.945739 -2.554434,-0.994757 -4.198987,-0.161399 -1.803349,0.913827 -2.40511,0.918648 -2.813401,0.02255 z m 15.497449,-14.78686 c -0.227485,-0.728944 -0.619104,-1.041285 -1.313195,-1.047358 -0.68883,-0.006 -0.611268,0.720824 0.132511,1.241787 0.924016,0.647205 1.417951,0.565867 1.180684,-0.194429 z M 24.171079,15.798899 c -0.09533,-0.154242 -0.355172,-0.280441 -0.577433,-0.280441 -0.22226,0 -0.40411,0.126199 -0.40411,0.280441 0,0.154242 0.259845,0.280441 0.577432,0.280441 0.317588,0 0.499438,-0.126199 0.404111,-0.280441 z"
           style="fill:#d9ac0d;stroke-width:0.28044078" />
        <path
           inkscape:connector-curvature="0"
           id="path871-1"
           d="m 26.554825,40.191357 c 0,-0.459106 -0.154043,-0.559813 -0.757911,-0.495496 -0.606402,0.06459 -0.813051,-0.07235 -1.033754,-0.685016 -0.345312,-0.958578 -0.269193,-1.029215 1.405672,-1.304448 1.546614,-0.254155 3.292282,-1.145368 3.407611,-1.739681 0.06445,-0.332115 -1.067285,-0.407548 -6.947528,-0.463072 -5.660657,-0.05345 -7.185643,-0.149654 -7.854388,-0.495474 -1.24962,-0.646203 -3.363504,-0.881081 -3.363504,-0.373724 0,0.629735 0.600528,1.075748 1.448425,1.075748 0.479564,0 0.88612,0.206943 1.065675,0.542446 0.540589,1.010097 0.345528,1.339382 -0.891726,1.505333 -0.650118,0.0872 -1.335425,0.368319 -1.522903,0.62471 C 11.2005,38.806628 11.055325,38.77021 9.9077019,37.980623 8.4707729,36.991991 7.9845845,36.932218 6.4830813,37.559583 5.4803395,37.978556 5.3894714,37.974849 5.0428488,37.500814 4.5436393,36.818104 4.7099202,36.464252 5.6849031,36.134498 6.7609378,35.770567 6.9573947,35.46061 6.7537075,34.448211 6.5545707,33.458431 6.218104,33.020616 5.967814,33.425592 5.8526948,33.611861 5.5092173,33.55287 4.9969104,33.258845 4.2243047,32.815431 4.2155505,32.783971 4.6526261,32.021669 5.0770982,31.281347 5.0684177,31.20677 4.4904646,30.628458 3.9532789,30.090941 3.3162302,29.928669 1.3852653,29.837491 0.76161154,29.808042 1.0129762,29.285701 1.86211,28.846597 c 1.125282,-0.581906 1.3758161,-0.542735 1.7475986,0.273239 0.4757692,1.0442 1.0707358,0.888369 1.0707358,-0.280441 0,-0.837731 0.094662,-0.981543 0.6460888,-0.981543 0.369426,0 1.0508643,-0.417622 1.5913578,-0.97527 0.6333273,-0.653428 1.0496195,-0.888667 1.2614796,-0.712838 0.6871856,0.570313 2.6707714,-0.460054 2.6707714,-1.387325 0,-0.255495 -0.252397,-0.735452 -0.560882,-1.066572 -1.0469176,-1.123734 -0.5709735,-2.417234 1.997258,-5.428058 0.740084,-0.867626 1.60941,-2.024615 1.931837,-2.571086 0.322425,-0.546471 0.889466,-1.192273 1.260089,-1.435115 0.423717,-0.277629 0.74448,-0.832702 0.8641,-1.495305 0.289514,-1.60368 0.588774,-1.989863 1.79332,-2.314214 1.489819,-0.401166 2.411967,-0.119138 3.3163,1.014253 0.643919,0.807016 0.931058,0.947272 1.939307,0.947279 0.98419,7e-6 1.286035,-0.138707 1.792515,-0.82376 0.79054,-1.069261 1.93853,-1.533513 3.204672,-1.295982 1.277952,0.239745 2.092338,1.054473 2.092338,2.093217 0,0.52045 0.354578,1.239192 0.981543,1.989619 0.539848,0.646157 0.981543,1.306525 0.981543,1.467486 0,0.16096 0.484814,0.818618 1.077369,1.461462 0.592552,0.642843 1.191994,1.353167 1.332094,1.578498 0.524974,0.844353 2.147088,1.942723 2.87032,1.943556 0.673055,7.85e-4 3.333422,1.191248 5.046074,2.25804 0.35786,0.222906 0.951272,1.036275 1.318697,1.807487 l 0.668047,1.402204 h 1.48571 1.485711 l 0.04102,1.245256 c 0.03014,0.914901 -0.02936,1.119496 -0.224266,0.771212 -0.388803,-0.694753 -1.277977,-0.578244 -1.812463,0.237488 -0.444743,0.678763 -0.43698,0.74265 0.168606,1.387266 0.349149,0.371654 0.903081,0.714007 1.230959,0.760781 0.49334,0.07038 0.610508,0.305605 0.679449,1.364056 l 0.08331,1.279009 -1.251406,0.06478 c -0.688271,0.03563 -1.337461,-0.07446 -1.442643,-0.244654 -0.105179,-0.170185 -0.506686,-0.429363 -0.892236,-0.575946 -0.385548,-0.146587 -0.766602,-0.517397 -0.846789,-0.824025 -0.169282,-0.647336 -0.257071,-0.662256 -1.449906,-0.246432 -0.709431,0.24731 -0.856281,0.4247 -0.716412,0.865393 0.156966,0.494551 0.110236,0.519157 -0.433398,0.228211 -0.8149,-0.436119 -1.279015,-0.214714 -1.883637,0.898591 -0.277603,0.511162 -1.124971,1.776593 -1.883036,2.81207 -1.021531,1.395355 -1.63856,1.966105 -2.383747,2.204971 -0.552996,0.177255 -1.257842,0.628695 -1.566326,1.003193 -0.544726,0.661296 -0.590914,0.668355 -1.603527,0.245094 -1.419866,-0.593489 -1.971734,-0.552026 -3.59395,0.270014 -1.363189,0.690779 -1.392882,0.693541 -1.392882,0.129605 z M 9.3077173,36.271076 c 0.095327,-0.154243 -0.023422,-0.280441 -0.26389,-0.280441 -0.2404665,0 -0.4372119,0.126198 -0.4372119,0.280441 0,0.154242 0.1187504,0.280441 0.26389,0.280441 0.1451396,0 0.3418848,-0.126199 0.4372119,-0.280441 z m 23.3200307,-1.55452 c 0.227107,-0.591825 -0.151957,-0.911348 -0.475061,-0.400444 -0.343319,0.542863 -0.336434,0.833201 0.01974,0.833201 0.159086,0 0.363973,-0.194741 0.455307,-0.432757 z M 21.050285,32.366272 c 0.267896,-1.675331 -0.178894,-2.278052 -2.581919,-3.483015 -1.998382,-1.00206 -2.342618,-1.083057 -4.892515,-1.151197 -2.880554,-0.07698 -3.511941,0.160067 -2.491757,0.935485 0.391191,0.297336 0.543698,0.646386 0.445143,1.018824 -0.107947,0.407929 0.09173,0.745193 0.713265,1.204711 0.875009,0.646921 1.412047,0.614194 1.412047,-0.08605 0,-0.439358 1.438415,-1.545801 2.006378,-1.543326 0.470848,0.0021 4.16332,3.408958 4.16332,3.841342 0,0.329941 0.573056,0.639349 0.874596,0.472217 0.09542,-0.05289 0.25357,-0.596932 0.351442,-1.208988 z m 5.352794,0.472183 c 0.210134,-0.499762 0.316017,-1.015515 0.235298,-1.146125 -0.08072,-0.130607 0.07592,-0.731299 0.348094,-1.334871 0.603015,-1.337245 1.277554,-1.418089 2.136665,-0.25608 0.342109,0.462727 0.798902,0.841322 1.015097,0.841322 0.216192,0 0.610438,0.268427 0.8761,0.596506 0.530089,0.65463 1.710189,0.532192 1.710189,-0.177435 0,-1.01194 -2.933974,-3.223727 -4.275706,-3.223258 -1.121895,3.93e-4 -4.039583,1.558076 -4.221509,2.253762 -0.356852,1.364603 0.475455,3.354833 1.402978,3.354833 0.214905,0 0.562662,-0.408894 0.772794,-0.908654 z m 8.56497,0.09734 c 0,-0.997203 -0.849584,-0.976515 -1.646872,0.04011 -0.35128,0.447914 -0.296179,0.490771 0.630992,0.490771 0.809781,0 1.01588,-0.107703 1.01588,-0.530877 z M 9.8077713,31.854133 c 0.4519317,-3.145896 -1.5645371,-6.136268 -2.4465752,-3.628207 -0.3481361,0.989921 0.077961,1.735232 0.9920371,1.735232 0.9220548,0 0.995521,0.798272 0.1259053,1.368066 -0.9148649,0.599442 -0.901052,0.900568 0.057367,1.250612 1.1223206,0.409906 1.1068591,0.418731 1.2712658,-0.725703 z m 26.5624817,-0.35055 c 0,-0.462728 -0.126199,-0.841323 -0.280441,-0.841323 -0.154243,0 -0.280441,0.378595 -0.280441,0.841323 0,0.462727 0.126198,0.841322 0.280441,0.841322 0.154242,0 0.280441,-0.378595 0.280441,-0.841322 z m 9.534986,-0.595219 c 0,-0.338096 -0.76797,-0.311229 -0.981543,0.03434 -0.303117,0.490452 0.146376,0.90489 0.58585,0.54016 0.21763,-0.180618 0.395693,-0.439142 0.395693,-0.574497 z M 35.449403,28.957849 c -0.15671,-1.168344 -0.923259,-2.328393 -1.360158,-2.058375 -0.487577,0.301339 -0.243675,1.88018 0.388032,2.511817 0.926277,0.926173 1.143576,0.824815 0.972126,-0.453442 z m 5.329213,-2.992972 c 0.101284,-0.269924 0.381268,-0.640023 0.622192,-0.822443 0.504493,-0.381987 0.538438,-0.343031 -1.850399,-2.123554 -1.809771,-1.348914 -2.422703,-1.461675 -1.488327,-0.273808 0.303434,0.385752 0.551697,0.898413 0.551697,1.139245 0,0.52727 1.374922,2.571332 1.729588,2.571332 0.138105,0 0.333968,-0.220848 0.435249,-0.490772 z M 28.720439,25.708234 c 0.05983,-0.179714 -0.130351,-0.402652 -0.422629,-0.495418 -0.292281,-0.09277 -0.700971,-0.485475 -0.908199,-0.872688 -0.386347,-0.721895 -1.412339,-1.165448 -1.940609,-0.838958 -0.380145,0.234942 -0.384557,0.710952 -0.0066,0.710952 0.159386,0 0.738564,0.448774 1.287066,0.997276 0.967423,0.967423 1.768163,1.168048 1.990964,0.498836 z m -7.842001,-0.444459 c 0.263904,-0.328585 0.628152,-2.453857 0.420564,-2.453857 -0.0524,0 -0.444089,0.257899 -0.870432,0.573108 -0.969697,0.716928 -1.698384,0.476836 -1.920293,-0.632709 -0.165071,-0.825353 -0.313822,-0.926864 -2.318054,-1.58189 -1.231181,-0.402376 -1.662283,-0.04133 -1.055819,0.884254 0.242808,0.370572 0.482415,1.102692 0.53246,1.626935 0.06964,0.729551 0.233936,0.973525 0.700295,1.03994 0.455311,0.06484 0.632503,-0.07691 0.701102,-0.560881 0.112567,-0.794184 0.650041,-0.725172 0.65954,0.08469 0.0038,0.32169 0.248741,0.761757 0.544372,0.977928 0.666973,0.487703 2.228247,0.513155 2.606265,0.04249 z m 3.993743,-0.630992 c 0,-0.264472 -1.168424,-1.308803 -1.308075,-1.169152 -0.250274,0.250274 0.475501,1.309373 0.89728,1.309373 0.225937,0 0.410795,-0.0631 0.410795,-0.140221 z m -6.450138,-8.536892 c 0,-0.378699 -0.511226,-0.641223 -0.845897,-0.434385 -0.156758,0.09688 -0.21241,0.293627 -0.12367,0.437212 0.21052,0.340627 0.969567,0.338414 0.969567,-0.0028 z m 3.21062,-0.844955 c 0.01154,-0.772133 0.144676,-0.997519 0.661991,-1.120705 0.735502,-0.175142 0.84781,-0.595194 0.258519,-0.966909 -0.287466,-0.181329 -0.725337,0.06464 -1.56408,0.878615 -1.287325,1.249307 -1.400998,1.589733 -0.674075,2.018708 0.854092,0.504022 1.302121,0.228702 1.317645,-0.809709 z m 2.409068,0.287838 c -0.159116,-0.297311 -0.206546,-0.756225 -0.105399,-1.019809 0.128025,-0.333629 0.06547,-0.439766 -0.205877,-0.349316 -0.214379,0.07146 -0.422255,0.530373 -0.461946,1.019808 -0.05921,0.730083 0.02971,0.889883 0.495179,0.889883 0.473335,0 0.519407,-0.08957 0.278043,-0.540566 z m -4.497925,-0.424426 c 0,-0.06802 -0.126199,-0.201665 -0.280441,-0.296992 -0.154242,-0.09533 -0.280441,-0.03968 -0.280441,0.12367 0,0.163345 0.126199,0.296991 0.280441,0.296991 0.154242,0 0.280441,-0.05565 0.280441,-0.123669 z m 0.226744,-1.924236 c 0.805189,-0.830744 0.85733,-0.981285 0.506193,-1.461493 -0.379666,-0.519225 -0.426171,-0.511296 -1.543741,0.26318 -0.633755,0.439192 -1.152282,0.866081 -1.152282,0.94864 0,0.223065 0.899595,1.175815 1.110215,1.175815 0.10008,0 0.585906,-0.416764 1.079615,-0.926142 z m 5.940608,0.653085 c 0.298196,-0.188525 0.331796,-0.350992 0.117006,-0.565781 -0.380639,-0.380639 -1.236424,-0.07043 -1.236424,0.448181 0,0.448872 0.510593,0.502512 1.119418,0.1176 z m 2.975362,-0.894639 c 0.300851,-0.486788 -1.148248,-1.621369 -1.83984,-1.440513 -0.793028,0.207382 -0.714978,0.707191 0.198917,1.273809 0.912823,0.565952 1.365735,0.611965 1.640923,0.166704 z m 18.340482,16.475089 c 0,-0.244217 0.199814,-0.444031 0.444031,-0.444031 0.244219,0 0.394078,0.14986 0.333023,0.333023 -0.173332,0.52 -0.777054,0.606246 -0.777054,0.111008 z M 8.659198,24.194595 C 8.726679,23.992152 8.9475262,23.771304 9.1499694,23.703823 9.3603,23.633713 9.4654653,23.738873 9.3953551,23.949209 9.3278741,24.151652 9.1070269,24.372499 8.9045837,24.43998 8.6942531,24.51009 8.5890878,24.40493 8.659198,24.194595 Z"
           style="fill:#a79a19;stroke-width:0.28044078" />
        <path
           inkscape:connector-curvature="0"
           id="path869-6"
           d="m 27.115707,39.668619 c 0,-0.379577 1.310769,-1.154017 1.953219,-1.154017 0.875281,0 0.668955,0.368794 -0.509905,0.911432 -1.207295,0.555725 -1.443314,0.595396 -1.443314,0.242585 z m -1.682645,-0.733356 c 0,-0.257072 0.135663,-0.422181 0.301474,-0.366909 0.165811,0.05527 0.301474,0.220379 0.301474,0.366909 0,0.14653 -0.135663,0.31164 -0.301474,0.366909 -0.165811,0.05527 -0.301474,-0.109837 -0.301474,-0.366909 z m 6.726212,-0.285702 c -0.289796,-0.349185 -0.258089,-0.534004 0.175994,-1.025824 2.16505,-2.453032 2.775856,-3.035306 3.184054,-3.035306 0.255757,0 0.739694,-0.371531 1.075421,-0.82562 0.499411,-0.675495 0.58171,-1.070698 0.452586,-2.173416 -0.0868,-0.74129 -0.36344,-1.8355 -0.614751,-2.431582 -0.430558,-1.021236 -0.427622,-1.105216 0.05086,-1.455094 0.350147,-0.256033 0.525636,-0.790211 0.565262,-1.720622 0.107432,-2.522483 0.162662,-2.891738 0.432505,-2.891738 0.148297,0 0.402741,0.473244 0.56543,1.051653 0.162689,0.578409 0.483051,1.29662 0.71191,1.596025 0.228862,0.299404 0.416112,0.759146 0.416112,1.021649 0,0.262502 0.199618,0.553878 0.443599,0.647501 0.786908,0.301966 3.640236,0.180825 3.990481,-0.16942 0.2659,-0.2659 0.469181,-0.210109 0.936244,0.256951 l 0.596595,0.596597 -0.599714,0.762411 c -0.32984,0.419326 -0.599711,0.92076 -0.599711,1.114298 0,0.193538 -0.586015,0.523564 -1.302258,0.733391 -0.71624,0.209829 -1.440689,0.602353 -1.609881,0.872278 -0.169196,0.269924 -0.510108,0.490771 -0.757586,0.490771 -0.458751,0 -1.378209,0.838341 -1.378209,1.256622 0,0.713051 -3.562325,4.912514 -4.169134,4.914803 -0.251976,8.41e-4 -0.819611,0.190248 -1.261409,0.420661 -0.975622,0.508823 -0.875872,0.509359 -1.304403,-0.007 z M 30.409941,35.54566 c -0.115267,-0.115267 -3.460381,-0.232685 -7.433588,-0.260931 -6.18235,-0.04395 -7.356919,-0.120082 -8.145732,-0.527994 -0.878266,-0.454168 -2.664427,-0.64933 -3.813415,-0.416665 -0.743072,0.15047 -1.012281,-0.99858 -0.807167,-3.445184 0.165676,-1.976179 0.591107,-2.637324 1.264037,-1.964394 0.220764,0.220764 0.19919,0.434242 -0.07759,0.767737 -0.335607,0.404382 -0.262488,0.562113 0.586789,1.265822 1.082584,0.897026 1.410619,0.909293 1.792208,0.06702 0.143636,-0.317047 0.696246,-0.81076 1.228022,-1.09714 l 0.966865,-0.520691 0.735063,0.852966 c 0.404284,0.469131 1.153971,1.143589 1.665969,1.498795 0.511998,0.355206 1.045218,0.946493 1.184932,1.313969 0.170013,0.447168 0.476133,0.668139 0.925597,0.668139 0.589545,0 0.689237,-0.156727 0.816203,-1.283165 0.172401,-1.529538 -0.361111,-2.794511 -1.275388,-3.02398 -0.346793,-0.08704 -1.197665,-0.533906 -1.890826,-0.993036 -1.265207,-0.838039 -1.787182,-0.921787 -5.318697,-0.853355 -2.21364,0.0429 -2.804408,-0.04177 -2.804408,-0.401898 0,-0.572021 1.049848,-1.384513 1.543971,-1.1949 0.243704,0.09352 1.009268,-0.0961 1.701253,-0.42137 l 1.258156,-0.591403 1.703509,0.907961 c 1.481071,0.789402 1.681099,0.837351 1.531881,0.367205 -0.159005,-0.500978 -0.04943,-0.531916 1.489652,-0.420589 1.618443,0.117067 1.67274,0.09801 2.105686,-0.739219 0.635366,-1.228663 0.592499,-2.569882 -0.08214,-2.569882 -0.289599,0 -0.683646,0.189297 -0.875661,0.420661 -0.538117,0.648391 -0.988249,0.508429 -1.803852,-0.560882 -0.551193,-0.722652 -0.962435,-0.981542 -1.559158,-0.981542 -0.445775,0 -0.897091,-0.140107 -1.002924,-0.311349 -0.114899,-0.185911 -0.589394,-0.246929 -1.17774,-0.151454 -1.107199,0.179674 -2.028227,-0.189514 -2.028227,-0.813001 0,-0.228111 0.40536,-0.776936 0.900799,-1.219611 0.82496,-0.737102 0.952626,-0.770906 1.516391,-0.401512 0.485969,0.318419 1.007589,0.350831 2.477215,0.15393 1.023893,-0.137182 2.329141,-0.169087 2.900551,-0.0709 0.723869,0.124385 1.445648,0.01284 2.380113,-0.367823 1.315856,-0.536028 1.348635,-0.5363 1.735675,-0.01441 0.325964,0.439536 0.488889,0.474378 0.937928,0.200572 0.298891,-0.182251 1.004087,-0.417785 1.567103,-0.523407 0.567545,-0.106472 1.149636,-0.427416 1.306375,-0.720287 0.15549,-0.290535 0.530664,-0.528246 0.833722,-0.528246 0.627677,0 0.683193,-0.378459 0.241415,-1.645746 -0.170281,-0.488466 -0.228397,-1.211658 -0.129149,-1.607094 l 0.18045,-0.718973 0.709683,1.045778 c 0.45043,0.663743 0.60152,1.112626 0.4136,1.228768 -0.170461,0.105351 0.228668,0.621631 0.940716,1.216828 0.724064,0.605244 1.568348,1.703628 2.03655,2.649481 0.569555,1.150609 0.959071,1.615826 1.353267,1.616276 0.420366,4.77e-4 0.574805,0.221828 0.642002,0.92014 0.06466,0.671989 0.212907,0.898461 0.550712,0.841323 0.263205,-0.04452 0.507466,0.14253 0.567279,0.434409 0.07728,0.377101 -0.03838,0.488299 -0.437524,0.420678 -0.624441,-0.105788 -1.470051,0.500781 -1.470051,1.054492 0,0.242096 -0.520232,0.445675 -1.456158,0.56983 -1.184403,0.157116 -1.629271,0.381352 -2.383761,1.201532 -0.84524,0.918832 -0.877799,1.016324 -0.366707,1.097982 0.308493,0.04929 0.560896,0.207036 0.560896,0.350551 0,0.143515 0.378595,0.260936 0.841322,0.260936 0.713295,0 0.841322,0.108059 0.841322,0.710109 0,0.39056 0.188459,1.161157 0.418799,1.712437 0.23034,0.55128 0.344676,1.122264 0.25408,1.268851 -0.162847,0.263488 -2.064931,-1.491576 -2.085978,-1.924742 -0.006,-0.123327 -0.622071,-0.52148 -1.369061,-0.884785 -1.554806,-0.756191 -2.343691,-0.68128 -4.562707,0.433269 -1.634372,0.820898 -2.046698,1.621585 -1.630675,3.166576 0.342013,1.270139 0.865021,1.76326 1.738757,1.639398 0.501534,-0.0711 0.69966,-0.343074 0.883918,-1.2134 0.608279,-2.873146 1.570511,-3.697328 2.369753,-2.029766 0.222723,0.464696 0.593289,0.767783 0.938725,0.767783 0.313906,0 0.802854,0.283946 1.086554,0.630991 0.413773,0.506162 0.586331,0.561642 0.872255,0.280441 0.196039,-0.192803 0.520492,-0.350551 0.721007,-0.350551 0.601627,0 0.413749,0.848292 -0.406639,1.836029 -0.424167,0.510691 -0.960891,1.200026 -1.192723,1.531855 -0.231832,0.331831 -0.51582,0.509019 -0.631087,0.393753 z m -7.335174,-8.984591 c -0.143906,-0.375014 -0.258015,-0.405694 -0.523072,-0.140637 -0.265057,0.265057 -0.249529,0.394317 0.07118,0.592527 0.522213,0.322746 0.686213,0.158746 0.45189,-0.45189 z m 6.497966,-1.064543 c 0.575621,-0.527518 0.953137,-1.052571 0.838921,-1.166784 -0.114212,-0.114214 -0.44258,0.0049 -0.729704,0.264782 -0.600463,0.543412 -1.200878,0.39937 -2.377431,-0.570351 -0.873803,-0.720195 -1.847199,-0.843264 -2.395129,-0.302822 -0.284756,0.280863 -0.42749,0.252988 -0.717997,-0.14022 -0.855034,-1.157308 -1.401813,-0.06483 -0.565294,1.129473 0.504552,0.720348 1.034113,0.795937 1.51519,0.216277 0.286857,-0.345643 0.483704,-0.261082 1.305668,0.560881 1.213952,1.213953 1.808865,1.215621 3.125776,0.0088 z m 2.449768,-1.728787 c 0.566975,-0.743343 0.684729,-1.087289 0.451944,-1.320075 -0.435025,-0.435025 -1.032168,0.240622 -1.249622,1.413907 -0.09291,0.501288 -0.123957,0.911433 -0.069,0.911433 0.05496,0 0.444964,-0.452369 0.866678,-1.005265 z m 13.952848,9.220573 c -0.819002,-0.157748 -0.799654,-0.519966 0.05778,-1.081775 0.734112,-0.48101 1.274317,-0.347604 1.274317,0.314699 0,0.222261 0.126198,0.40411 0.280441,0.40411 0.154242,0 0.280441,0.126198 0.280441,0.28044 0,0.280452 -0.705645,0.311214 -1.892976,0.08253 z m -4.136501,-6.813104 c -0.09533,-0.154243 -0.03968,-0.280441 0.123669,-0.280441 0.163345,0 0.296992,0.126198 0.296992,0.280441 0,0.154242 -0.05565,0.280441 -0.123669,0.280441 -0.06802,0 -0.201665,-0.126199 -0.296992,-0.280441 z M 16.739398,12.069037 c 0,-0.520234 0.587316,-1.037631 1.177851,-1.037631 0.64563,0 0.64263,0.349212 -0.0081,0.938078 -0.614227,0.555868 -1.169791,0.603148 -1.169791,0.09955 z m 12.269284,-0.218772 c -0.571406,-0.332814 -0.6594,-1.0993 -0.126198,-1.0993 0.468984,0 1.037631,0.568648 1.037631,1.037631 0,0.432959 -0.245453,0.449567 -0.911433,0.06167 z"
           style="fill:#8f6608;stroke-width:0.28044078" />
        <path
           inkscape:connector-curvature="0"
           id="path867-6"
           d="m 27.816809,39.20701 c 0.884101,-0.724687 1.261983,-0.857703 1.261983,-0.444221 0,0.320768 -1.274152,1.157048 -1.742889,1.143932 -0.198229,-0.0056 0.01817,-0.320417 0.480906,-0.699711 z m 6.309917,-1.205901 c 0,-0.128178 0.283947,-0.38882 0.630992,-0.5792 0.347046,-0.190382 1.103798,-1.091492 1.681672,-2.002467 l 1.050679,-1.656323 -0.169408,-2.672191 c -0.11329,-1.786975 -0.07186,-2.672194 0.125068,-2.672194 0.161963,0 0.333284,-0.507021 0.380712,-1.126712 0.09244,-1.207809 0.590931,-1.651328 0.733277,-0.652417 0.109984,0.771801 0.939003,0.980956 3.608157,0.910309 2.478948,-0.06561 3.024489,0.257208 2.099167,1.24217 -0.341653,0.363671 -0.551204,0.843586 -0.465672,1.066478 0.156746,0.408474 -1.199934,1.084139 -2.17686,1.084139 -0.250229,0 -0.621785,0.220847 -0.82568,0.490771 -0.203897,0.269925 -0.621198,0.629357 -0.927336,0.798741 -0.306138,0.16938 -0.702894,0.596461 -0.881678,0.949067 -1.008137,1.988269 -3.637249,5.052881 -4.33484,5.052881 -0.290537,0 -0.52825,-0.104873 -0.52825,-0.233052 z M 16.886739,35.221047 c -1.425505,-0.109958 -2.226194,-0.49886 -1.949343,-0.946813 0.0852,-0.137857 -0.05513,-0.331243 -0.311832,-0.429751 -0.256707,-0.09851 -0.549465,-0.04525 -0.650573,0.118344 -0.101109,0.163598 -0.687814,0.281425 -1.303791,0.261836 -0.615976,-0.01957 -1.29883,0.02269 -1.517453,0.09397 -0.572283,0.186558 -1.01252,-1.460033 -0.69053,-2.582744 0.346533,-1.208293 0.723782,-1.254505 1.762398,-0.215889 0.722971,0.72297 0.956597,0.820098 1.29569,0.538676 0.227527,-0.188829 0.413685,-0.565756 0.413685,-0.837615 0,-0.563483 1.131009,-1.40012 1.892754,-1.40012 0.280656,0 0.731275,0.37411 1.001377,0.831355 0.270101,0.457245 0.865203,1.052346 1.322448,1.32245 0.806998,0.476704 0.885893,0.601335 0.944439,1.491925 0.01521,0.231364 0.463633,0.561613 0.996496,0.733885 0.532863,0.172275 1.01092,0.439462 1.062349,0.593747 0.101227,0.303681 -1.312227,0.666748 -2.277094,0.584904 -0.327765,-0.02779 -1.223724,-0.09897 -1.99102,-0.158157 z m 6.406523,-0.217979 C 23.40929,34.700706 23.19348,34.406731 22.617706,34.08283 21.744639,33.591688 21.320743,32.673621 21.614081,31.909195 21.93218,31.08024 21.046261,29.589912 19.967441,29.139152 19.408063,28.905429 18.60577,28.46881 18.184568,28.168888 17.17493,27.449962 14.135992,26.889223 13.395922,27.285296 c -0.375082,0.200738 -0.782758,0.20217 -1.302476,0.0046 -0.416078,-0.158192 -0.992233,-0.212805 -1.280346,-0.121362 -0.288112,0.09144 -0.52384,0.0568 -0.52384,-0.07699 0,-0.413801 0.647615,-0.916309 1.180908,-0.916309 0.279317,0 1.070899,-0.264665 1.759071,-0.588144 l 1.251222,-0.588144 1.612959,0.986526 c 1.573605,0.962455 2.411782,1.106004 1.741396,0.298238 -0.489073,-0.589296 -0.26986,-0.652282 1.269364,-0.364724 1.234691,0.230665 1.452436,0.192913 2.032975,-0.352475 0.427165,-0.401301 0.650177,-0.930713 0.650177,-1.543468 0,-1.242512 0.617901,-1.217429 1.36899,0.05557 0.686442,1.163432 1.273151,1.458644 1.88679,0.949368 0.373079,-0.309628 0.48721,-0.291879 0.712569,0.110819 0.147588,0.263723 0.767749,0.734275 1.378134,1.045671 l 1.109794,0.566175 1.187125,-1.107338 c 0.65292,-0.609035 1.094005,-1.200457 0.980191,-1.31427 -0.113811,-0.113813 -0.433205,-0.0022 -0.709764,0.248125 -0.705733,0.63868 -1.545734,0.32743 -2.151363,-0.797158 -0.402516,-0.747424 -0.442535,-1.042637 -0.183635,-1.354594 0.45405,-0.547097 1.299588,-0.269779 1.672431,0.548521 0.329868,0.723978 0.529509,0.803095 1.105125,0.437954 0.290598,-0.184339 0.276486,-0.303277 -0.07011,-0.590926 -0.238663,-0.198074 -0.433934,-0.660178 -0.433934,-1.026898 0,-0.36672 -0.126198,-0.666763 -0.280441,-0.666763 -0.502196,0 -0.296168,-0.74245 0.420661,-1.515923 0.888036,-0.958205 0.880253,-1.182717 -0.04908,-1.415964 -0.53441,-0.134129 -0.820732,-0.06221 -0.995477,0.250039 -0.134912,0.241077 -0.491422,0.438322 -0.792243,0.438322 -0.647465,0 -0.675144,0.227584 -0.117367,0.965033 0.226459,0.299404 0.411743,0.753089 0.411743,1.008188 0,0.616879 -0.88605,1.392068 -1.591151,1.392068 -0.310995,0 -0.79386,0.252397 -1.073036,0.560881 -0.592964,0.655217 -1.13965,0.723302 -1.352566,0.168449 -0.08282,-0.215838 -0.60112,-0.54112 -1.151768,-0.72285 -0.888557,-0.293251 -1.001176,-0.438383 -1.001176,-1.290212 0,-1.085333 -0.05684,-1.119231 -0.924014,-0.551039 -0.743605,0.487229 -1.421376,0.175888 -1.268244,-0.58258 0.06675,-0.330604 0.312399,-0.5044 0.658586,-0.465945 1.865842,0.207264 2.595721,0.523897 3.608863,1.565583 1.046028,1.075498 1.111031,1.101193 1.492862,0.590095 0.86543,-1.158411 0.942551,-1.474757 0.430082,-1.764153 -0.428587,-0.242028 -0.364649,-0.331954 0.491854,-0.691771 0.541461,-0.227469 1.338922,-0.74207 1.772136,-1.143558 0.433211,-0.401488 0.898661,-0.661375 1.034333,-0.577526 0.135668,0.08385 0.82668,0.0064 1.535581,-0.172098 1.155413,-0.290937 1.330257,-0.269946 1.688111,0.20267 0.219562,0.289972 0.403215,0.887599 0.408122,1.328061 0.0049,0.440461 0.324451,1.175828 0.710102,1.634148 1.08834,1.293419 1.150258,2.008403 0.273483,3.157917 -0.496347,0.650743 -0.992926,0.997454 -1.428613,0.997454 -0.822516,0 -0.889525,-0.702933 -0.106935,-1.121763 0.596085,-0.319015 0.756775,-1.248034 0.268107,-1.550046 -0.161024,-0.09952 -0.584498,0.0102 -0.94105,0.243823 -0.574828,0.376642 -0.638062,0.608844 -0.558139,2.049502 0.07492,1.350479 -0.01116,1.732575 -0.510038,2.263593 l -0.600177,0.638858 h 0.609768 c 0.335371,0 0.609766,0.117816 0.609766,0.261813 0,0.143997 0.333864,0.301745 0.741922,0.350551 0.616953,0.07379 0.799094,0.30131 1.08133,1.350722 0.186672,0.69409 0.4342,1.48283 0.550065,1.752754 0.380504,0.886462 -0.286187,0.513148 -1.127647,-0.631425 -1.122868,-1.527352 -3.290457,-2.543083 -4.786732,-2.243061 -1.480433,0.296845 -3.390613,1.290788 -3.741815,1.947015 -0.422261,0.789002 -0.352957,2.62872 0.122718,3.257617 0.226458,0.299405 0.415756,0.750502 0.420661,1.002436 0.01125,0.577725 1.162391,0.901342 1.582957,0.445015 0.426256,-0.462506 0.947898,-2.082694 0.958847,-2.978122 0.0098,-0.802217 0.576609,-1.710907 1.067186,-1.710907 0.172244,0 0.51989,0.315496 0.77255,0.701102 0.252658,0.385606 0.611403,0.701102 0.797212,0.701102 0.185809,0 0.622071,0.326898 0.969467,0.72644 0.484966,0.55776 0.795201,0.685386 1.336054,0.549641 0.787009,-0.197526 0.774454,-0.158023 -0.523219,1.64626 l -0.790764,1.09948 -3.815173,0.101202 c -3.391575,0.08997 -3.796239,0.05187 -3.644676,-0.343097 z m -0.664608,-6.41411 c 0,-0.214861 -0.202391,-0.468322 -0.449758,-0.563245 -0.25679,-0.09854 -0.380889,-0.352058 -0.289242,-0.590886 0.189163,-0.492951 -0.407669,-0.561655 -0.869259,-0.100065 -0.237349,0.237349 -0.207768,0.486822 0.116385,0.981543 0.471356,0.71938 1.491874,0.905889 1.491874,0.272653 z m 0.446113,-2.027889 c -0.143906,-0.375014 -0.258015,-0.405694 -0.523072,-0.140637 -0.265057,0.265057 -0.249529,0.394317 0.07118,0.592527 0.522213,0.322746 0.686213,0.158746 0.45189,-0.45189 z m 23.040803,6.431842 c -0.66255,-0.173141 -0.62084,-0.839101 0.07591,-1.211989 0.642498,-0.343854 1.115966,-0.157044 1.115966,0.440314 0,0.222261 0.126198,0.40411 0.280441,0.40411 0.154242,0 0.280441,0.126198 0.280441,0.28044 0,0.282533 -0.844394,0.324507 -1.752755,0.08713 z M 19.169885,23.183839 c -0.102829,-0.102828 -0.186961,-0.407105 -0.186961,-0.676172 0,-0.714443 -1.628579,-1.996231 -2.275458,-1.79092 -0.290922,0.09234 -0.52895,0.04321 -0.52895,-0.109174 0,-0.513604 1.66462,-0.67838 2.3456,-0.232184 0.352089,0.230697 0.933514,0.462698 1.292056,0.515557 1.008313,0.148653 1.323422,0.880652 0.753522,1.75043 -0.464412,0.708783 -1.018692,0.923581 -1.399809,0.542463 z m -5.515336,-3.124485 c 0,-0.300326 0.198916,-0.711133 0.442035,-0.912904 0.366327,-0.304025 0.486346,-0.297898 0.700751,0.03577 0.405763,0.631472 0.17265,1.235507 -0.514659,1.333566 -0.466161,0.06651 -0.628127,-0.05119 -0.628127,-0.456433 z m 9.673983,-1.458028 c -0.096,-0.155332 0.02819,-0.36022 0.275985,-0.455306 0.536946,-0.206046 0.836195,0.02101 0.578093,0.438629 -0.232872,0.376795 -0.62676,0.384486 -0.854078,0.01668 z m 6.877649,-4.338074 c -0.221198,-0.266527 -0.242475,-0.427438 -0.05651,-0.427438 0.338926,0 0.734079,0.532052 0.539596,0.726537 -0.07059,0.07059 -0.287974,-0.06401 -0.483082,-0.299099 z M 16.80283,11.822653 c 0.153694,-0.461083 0.991151,-0.951907 1.225064,-0.717995 0.2668,0.2668 -0.423232,1.048511 -0.925543,1.048511 -0.225331,0 -0.360116,-0.148732 -0.299521,-0.330516 z m 12.294121,-0.348707 c -0.192694,-0.23218 -0.218663,-0.458843 -0.06355,-0.554706 0.144256,-0.08915 0.408911,0.01457 0.588118,0.230507 0.192694,0.23218 0.218663,0.458843 0.06355,0.554706 -0.144256,0.08915 -0.408911,-0.01458 -0.588118,-0.230507 z"
           style="fill:#5c541b;stroke-width:0.28044078" />
      </g>
    </g>
  </g>
</svg>
