<?xml version="1.0" encoding="UTF-8" standalone="no"?>
<!-- Created with Inkscape (http://www.inkscape.org/) -->

<svg
   xmlns:dc="http://purl.org/dc/elements/1.1/"
   xmlns:cc="http://creativecommons.org/ns#"
   xmlns:rdf="http://www.w3.org/1999/02/22-rdf-syntax-ns#"
   xmlns:svg="http://www.w3.org/2000/svg"
   xmlns="http://www.w3.org/2000/svg"
   xmlns:sodipodi="http://sodipodi.sourceforge.net/DTD/sodipodi-0.dtd"
   xmlns:inkscape="http://www.inkscape.org/namespaces/inkscape"
   width="48"
   height="48"
   id="svg2"
   sodipodi:version="0.32"
   inkscape:version="0.92.2 (5c3e80d, 2017-08-06)"
   sodipodi:docname="Cat242.svg"
   inkscape:output_extension="org.inkscape.output.svg.inkscape"
   version="1.0">
  <defs
     id="defs4">
    <marker
       inkscape:stockid="Arrow1Mend"
       orient="auto"
       refY="0.0"
       refX="0.0"
       id="Arrow1Mend"
       style="overflow:visible;">
      <path
         id="path3278"
         d="M 0.0,0.0 L 5.0,-5.0 L -12.5,0.0 L 5.0,5.0 L 0.0,0.0 z "
         style="fill-rule:evenodd;stroke:#000000;stroke-width:1.0pt;marker-start:none;"
         transform="scale(0.4) rotate(180) translate(10,0)" />
    </marker>
    <marker
       inkscape:stockid="Arrow1Send"
       orient="auto"
       refY="0.0"
       refX="0.0"
       id="Arrow1Send"
       style="overflow:visible;">
      <path
         id="path3284"
         d="M 0.0,0.0 L 5.0,-5.0 L -12.5,0.0 L 5.0,5.0 L 0.0,0.0 z "
         style="fill-rule:evenodd;stroke:#000000;stroke-width:1.0pt;marker-start:none;"
         transform="scale(0.2) rotate(180) translate(6,0)" />
    </marker>
    <marker
       inkscape:stockid="Arrow1Lend"
       orient="auto"
       refY="0.0"
       refX="0.0"
       id="Arrow1Lend"
       style="overflow:visible;">
      <path
         id="path3272"
         d="M 0.0,0.0 L 5.0,-5.0 L -12.5,0.0 L 5.0,5.0 L 0.0,0.0 z "
         style="fill-rule:evenodd;stroke:#000000;stroke-width:1.0pt;marker-start:none;"
         transform="scale(0.8) rotate(180) translate(12.5,0)" />
    </marker>
    <marker
       inkscape:stockid="Arrow2Lend"
       orient="auto"
       refY="0.0"
       refX="0.0"
       id="Arrow2Lend"
       style="overflow:visible;">
      <path
         id="path3290"
         style="font-size:12.0;fill-rule:evenodd;stroke-width:0.62500000;stroke-linejoin:round;"
         d="M 8.7185878,4.0337352 L -2.2072895,0.016013256 L 8.7185884,-4.0017078 C 6.9730900,-1.6296469 6.9831476,1.6157441 8.7185878,4.0337352 z "
         transform="scale(1.1) rotate(180) translate(1,0)" />
    </marker>
    <linearGradient
       id="linearGradient3230">
      <stop
         style="stop-color:#99a5c3;stop-opacity:1;"
         offset="0"
         id="stop3232" />
      <stop
         id="stop3244"
         offset="0.67000002"
         style="stop-color:#99a5c3;stop-opacity:1;" />
      <stop
         style="stop-color:#51618c;stop-opacity:1;"
         offset="1"
         id="stop3234" />
    </linearGradient>
    <inkscape:perspective
       sodipodi:type="inkscape:persp3d"
       inkscape:vp_x="56.260924 : 521.79843 : 1"
       inkscape:vp_y="6.5672346e-14 : 1043.6872 : 0"
       inkscape:vp_z="854.33665 : 521.79843 : 1"
       inkscape:persp3d-origin="455.29879 : 338.74226 : 1"
       id="perspective10" />
    <inkscape:perspective
       id="perspective5858"
       inkscape:persp3d-origin="372.04724 : 350.78739 : 1"
       inkscape:vp_z="744.09448 : 526.18109 : 1"
       inkscape:vp_y="0 : 1000 : 0"
       inkscape:vp_x="0 : 526.18109 : 1"
       sodipodi:type="inkscape:persp3d" />
    <inkscape:perspective
       id="perspective2408"
       inkscape:persp3d-origin="372.04724 : 350.78739 : 1"
       inkscape:vp_z="744.09448 : 526.18109 : 1"
       inkscape:vp_y="0 : 1000 : 0"
       inkscape:vp_x="0 : 526.18109 : 1"
       sodipodi:type="inkscape:persp3d" />
  </defs>
  <sodipodi:namedview
     id="base"
     pagecolor="#ffffff"
     bordercolor="#666666"
     borderopacity="1.0"
     inkscape:pageopacity="0.0"
     inkscape:pageshadow="2"
     inkscape:zoom="14.083333"
     inkscape:cx="38.372963"
     inkscape:cy="24.000001"
     inkscape:document-units="px"
     inkscape:current-layer="layer1"
     showgrid="false"
     inkscape:window-width="1917"
     inkscape:window-height="903"
     inkscape:window-x="365"
     inkscape:window-y="338"
     showguides="false"
     inkscape:window-maximized="0" />
  <metadata
     id="metadata7">
    <rdf:RDF>
      <cc:Work
         rdf:about="">
        <dc:format>image/svg+xml</dc:format>
        <dc:type
           rdf:resource="http://purl.org/dc/dcmitype/StillImage" />
        <dc:title></dc:title>
      </cc:Work>
    </rdf:RDF>
  </metadata>
  <g
     inkscape:label="Ebene 1"
     inkscape:groupmode="layer"
     id="layer1">
    <path
       style="display:inline;fill:#dd771f;fill-opacity:0.49803922;fill-rule:evenodd;stroke:none;stroke-width:1px;stroke-linecap:butt;stroke-linejoin:miter;stroke-opacity:1"
       d="M 23.2751,45.073591 C 18.594586,44.996191 2.4383146,27.796862 3.5773236,16.202479 4.1131966,10.747644 10.229338,6.7373737 15.310655,4.6824787 21.068227,2.3541057 28.276399,2.2801857 33.941767,4.8247017 38.718424,6.9700657 44.214296,11.256668 44.466211,16.486924 45.036858,28.334708 27.738481,45.1474 23.2751,45.073591 Z"
       id="path885-5"
       inkscape:connector-curvature="0"
       sodipodi:nodetypes="ssssss" />
    <g
       id="g961">
      <g
         id="g927">
        <g
           transform="matrix(0.71243505,0,0,0.6934681,6.1337798,0.39452679)"
           id="g894">
          <path
             style="color:#000000;clip-rule:nonzero;display:inline;overflow:visible;visibility:visible;opacity:1;isolation:auto;mix-blend-mode:normal;color-interpolation:sRGB;color-interpolation-filters:linearRGB;solid-color:#000000;solid-opacity:1;fill:#96cee0;fill-opacity:1;fill-rule:nonzero;stroke:#6fe16a;stroke-width:1.88976371;stroke-linecap:round;stroke-linejoin:round;stroke-miterlimit:4;stroke-dasharray:none;stroke-dashoffset:0;stroke-opacity:1;color-rendering:auto;image-rendering:auto;shape-rendering:auto;text-rendering:auto;enable-background:accumulate"
             d="m 7.4750982,25.495271 c 0.8851788,-4.858002 9.5164548,-4.72053 19.0507538,-6.537945 5.149511,-0.981593 10.584242,-0.225019 12.152705,2.965049 1.501869,3.054623 4.223403,5.654035 3.813332,8.08723 -0.820147,4.866385 -9.554206,8.968756 -18.94311,6.612459 C 18.463349,35.345792 6.6999607,30.488917 7.455027,25.614367"
             id="path873"
             inkscape:connector-curvature="0"
             sodipodi:nodetypes="cssssc" />
          <path
             sodipodi:nodetypes="cssssc"
             inkscape:connector-curvature="0"
             id="path4506"
             d="M 9.2306302,25.783318 C 10.027027,21.499801 17.7926,21.621016 26.370624,20.01852 c 4.633024,-0.865514 9.52266,-0.198409 10.933809,2.614416 1.351234,2.693397 3.799802,4.985415 3.430861,7.130871 -0.737888,4.290909 -8.595935,7.908152 -17.043147,5.8305 C 19.116777,34.468961 8.5332378,30.186438 9.2125721,25.88833"
             style="color:#000000;clip-rule:nonzero;display:inline;overflow:visible;visibility:visible;opacity:1;isolation:auto;mix-blend-mode:normal;color-interpolation:sRGB;color-interpolation-filters:linearRGB;solid-color:#000000;solid-opacity:1;fill:#96cee0;fill-opacity:1;fill-rule:nonzero;stroke:#b2b2b2;stroke-width:1.88976371;stroke-linecap:round;stroke-linejoin:round;stroke-miterlimit:4;stroke-dasharray:none;stroke-dashoffset:0;stroke-opacity:1;color-rendering:auto;image-rendering:auto;shape-rendering:auto;text-rendering:auto;enable-background:accumulate" />
          <path
             inkscape:connector-curvature="0"
             id="path831"
             d="M 13.108696,15.97826 12,18.913043 l 1.304348,3.130435 1.173913,-0.391305 -1.173913,-3.195652 0.652174,-2.021739 -0.391304,-2.804348 z"
             style="fill:#368a43;fill-opacity:1;fill-rule:evenodd;stroke:#244c24;stroke-width:0.1;stroke-linecap:butt;stroke-linejoin:miter;stroke-miterlimit:4;stroke-dasharray:none;stroke-opacity:1" />
          <path
             sodipodi:nodetypes="cccccccc"
             style="fill:#368a43;fill-opacity:1;fill-rule:evenodd;stroke:#244c24;stroke-width:0.10000001;stroke-linecap:butt;stroke-linejoin:miter;stroke-miterlimit:4;stroke-dasharray:none;stroke-opacity:1"
             d="m 15.847826,13.962685 -1.108696,3.689164 1.304348,3.935108 1.173913,-0.491889 -1.173913,-4.017089 0.652174,-2.541424 0.521739,-3.459984 z"
             id="path841"
             inkscape:connector-curvature="0" />
          <path
             sodipodi:nodetypes="cccccccc"
             inkscape:connector-curvature="0"
             id="path843"
             d="m 18.847826,14.845942 -1.108696,3.072441 1.304348,3.27727 1.173913,-0.409659 -1.173913,-3.345547 0.652174,-2.11657 -1.369565,-2.609801 z"
             style="fill:#368a43;fill-opacity:1;fill-rule:evenodd;stroke:#244c24;stroke-width:0.10000002;stroke-linecap:butt;stroke-linejoin:miter;stroke-miterlimit:4;stroke-dasharray:none;stroke-opacity:1" />
          <path
             sodipodi:nodetypes="cccccccc"
             style="fill:#368a43;fill-opacity:1;fill-rule:evenodd;stroke:#244c24;stroke-width:0.10000002;stroke-linecap:butt;stroke-linejoin:miter;stroke-miterlimit:4;stroke-dasharray:none;stroke-opacity:1"
             d="m 14.478261,13.737246 -1.108696,3.072441 1.304348,3.27727 1.173913,-0.409659 -1.173913,-3.345547 0.652174,-2.11657 0.130435,-4.2402359 z"
             id="path845"
             inkscape:connector-curvature="0" />
          <path
             style="fill:#368a43;fill-opacity:1;fill-rule:evenodd;stroke:#244c24;stroke-width:0.10000002;stroke-linecap:butt;stroke-linejoin:miter;stroke-miterlimit:4;stroke-dasharray:none;stroke-opacity:1"
             d="M 11.804348,18.620559 10.695652,20.579119 12,22.668249 13.173913,22.407108 12,20.274453 12.652174,18.925224 11.282609,17.261578 Z"
             id="path847"
             inkscape:connector-curvature="0"
             sodipodi:nodetypes="cccccccc" />
          <path
             transform="rotate(17.239965)"
             d="m 27.604515,11.100313 a 2.4456522,1.6630435 0 0 1 2.475601,-1.6367358 2.4456522,1.6630435 0 0 1 2.415301,1.6778788 2.4456522,1.6630435 0 0 1 -2.459308,1.648055 2.4456522,1.6630435 0 0 1 -2.431891,-1.666762"
             sodipodi:open="true"
             sodipodi:end="3.1438441"
             sodipodi:start="3.1573355"
             sodipodi:ry="1.6630435"
             sodipodi:rx="2.4456522"
             sodipodi:cy="11.126493"
             sodipodi:cx="30.049864"
             sodipodi:type="arc"
             id="path849"
             style="color:#000000;clip-rule:nonzero;display:inline;overflow:visible;visibility:visible;opacity:1;isolation:auto;mix-blend-mode:normal;color-interpolation:sRGB;color-interpolation-filters:linearRGB;solid-color:#000000;solid-opacity:1;fill:#c0c3c0;fill-opacity:1;fill-rule:nonzero;stroke:#42372e;stroke-width:0.1;stroke-linecap:round;stroke-linejoin:round;stroke-miterlimit:4;stroke-dasharray:none;stroke-dashoffset:0;stroke-opacity:1;color-rendering:auto;image-rendering:auto;shape-rendering:auto;text-rendering:auto;enable-background:accumulate" />
          <path
             style="color:#000000;clip-rule:nonzero;display:inline;overflow:visible;visibility:visible;opacity:1;isolation:auto;mix-blend-mode:normal;color-interpolation:sRGB;color-interpolation-filters:linearRGB;solid-color:#000000;solid-opacity:1;fill:#c0c3c0;fill-opacity:1;fill-rule:nonzero;stroke:#42372e;stroke-width:0.1;stroke-linecap:round;stroke-linejoin:round;stroke-miterlimit:4;stroke-dasharray:none;stroke-dashoffset:0;stroke-opacity:1;color-rendering:auto;image-rendering:auto;shape-rendering:auto;text-rendering:auto;enable-background:accumulate"
             id="path851"
             sodipodi:type="arc"
             sodipodi:cx="21.19429"
             sodipodi:cy="15.3768"
             sodipodi:rx="2.4456522"
             sodipodi:ry="1.6630435"
             sodipodi:start="3.1573355"
             sodipodi:end="3.1438441"
             sodipodi:open="true"
             d="m 18.748941,15.35062 a 2.4456522,1.6630435 0 0 1 2.475601,-1.636737 2.4456522,1.6630435 0 0 1 2.415301,1.677879 2.4456522,1.6630435 0 0 1 -2.459308,1.648055 2.4456522,1.6630435 0 0 1 -2.431891,-1.666762"
             transform="rotate(17.239965)" />
          <path
             transform="rotate(-11.790075)"
             d="m 12.235091,25.331879 a 2.4456522,1.6630435 0 0 1 2.475601,-1.636736 2.4456522,1.6630435 0 0 1 2.415301,1.677878 2.4456522,1.6630435 0 0 1 -2.459308,1.648055 2.4456522,1.6630435 0 0 1 -2.431891,-1.666761"
             sodipodi:open="true"
             sodipodi:end="3.1438441"
             sodipodi:start="3.1573355"
             sodipodi:ry="1.6630435"
             sodipodi:rx="2.4456522"
             sodipodi:cy="25.358059"
             sodipodi:cx="14.68044"
             sodipodi:type="arc"
             id="path853"
             style="color:#000000;clip-rule:nonzero;display:inline;overflow:visible;visibility:visible;opacity:1;isolation:auto;mix-blend-mode:normal;color-interpolation:sRGB;color-interpolation-filters:linearRGB;solid-color:#000000;solid-opacity:1;fill:#c0c3c0;fill-opacity:1;fill-rule:nonzero;stroke:#42372e;stroke-width:0.1;stroke-linecap:round;stroke-linejoin:round;stroke-miterlimit:4;stroke-dasharray:none;stroke-dashoffset:0;stroke-opacity:1;color-rendering:auto;image-rendering:auto;shape-rendering:auto;text-rendering:auto;enable-background:accumulate" />
          <path
             style="color:#000000;clip-rule:nonzero;display:inline;overflow:visible;visibility:visible;opacity:1;isolation:auto;mix-blend-mode:normal;color-interpolation:sRGB;color-interpolation-filters:linearRGB;solid-color:#000000;solid-opacity:1;fill:#c0c3c0;fill-opacity:1;fill-rule:nonzero;stroke:#42372e;stroke-width:0.1;stroke-linecap:round;stroke-linejoin:round;stroke-miterlimit:4;stroke-dasharray:none;stroke-dashoffset:0;stroke-opacity:1;color-rendering:auto;image-rendering:auto;shape-rendering:auto;text-rendering:auto;enable-background:accumulate"
             id="path855"
             sodipodi:type="arc"
             sodipodi:cx="27.336756"
             sodipodi:cy="13.255023"
             sodipodi:rx="2.4456522"
             sodipodi:ry="1.6630435"
             sodipodi:start="3.1573355"
             sodipodi:end="3.1438441"
             sodipodi:open="true"
             d="m 24.891407,13.228843 a 2.4456522,1.6630435 0 0 1 2.475601,-1.636736 2.4456522,1.6630435 0 0 1 2.415301,1.677878 2.4456522,1.6630435 0 0 1 -2.459308,1.648055 2.4456522,1.6630435 0 0 1 -2.431891,-1.666761"
             transform="rotate(16.033866)" />
          <path
             transform="rotate(-7.9336115)"
             d="M 6.1499601,24.159893 A 2.4456522,1.6630435 0 0 1 8.6255612,22.523157 2.4456522,1.6630435 0 0 1 11.040863,24.201036 2.4456522,1.6630435 0 0 1 8.5815543,25.84909 2.4456522,1.6630435 0 0 1 6.1496632,24.182329"
             sodipodi:open="true"
             sodipodi:end="3.1438441"
             sodipodi:start="3.1573355"
             sodipodi:ry="1.6630435"
             sodipodi:rx="2.4456522"
             sodipodi:cy="24.186073"
             sodipodi:cx="8.5953093"
             sodipodi:type="arc"
             id="path857"
             style="color:#000000;clip-rule:nonzero;display:inline;overflow:visible;visibility:visible;opacity:1;isolation:auto;mix-blend-mode:normal;color-interpolation:sRGB;color-interpolation-filters:linearRGB;solid-color:#000000;solid-opacity:1;fill:#c0c3c0;fill-opacity:1;fill-rule:nonzero;stroke:#42372e;stroke-width:0.1;stroke-linecap:round;stroke-linejoin:round;stroke-miterlimit:4;stroke-dasharray:none;stroke-dashoffset:0;stroke-opacity:1;color-rendering:auto;image-rendering:auto;shape-rendering:auto;text-rendering:auto;enable-background:accumulate" />
          <path
             inkscape:transform-center-y="1.7608814"
             inkscape:transform-center-x="0.84782504"
             style="color:#000000;clip-rule:nonzero;display:inline;overflow:visible;visibility:visible;opacity:1;isolation:auto;mix-blend-mode:normal;color-interpolation:sRGB;color-interpolation-filters:linearRGB;solid-color:#000000;solid-opacity:1;fill:#c0c3c0;fill-opacity:1;fill-rule:nonzero;stroke:#42372e;stroke-width:0.1;stroke-linecap:round;stroke-linejoin:round;stroke-miterlimit:4;stroke-dasharray:none;stroke-dashoffset:0;stroke-opacity:1;color-rendering:auto;image-rendering:auto;shape-rendering:auto;text-rendering:auto;enable-background:accumulate"
             id="path859"
             sodipodi:type="arc"
             sodipodi:cx="43.534409"
             sodipodi:cy="-15.982131"
             sodipodi:rx="2.4456522"
             sodipodi:ry="1.6630435"
             sodipodi:start="3.1573355"
             sodipodi:end="3.1438441"
             sodipodi:open="true"
             d="m 41.089059,-16.008311 a 2.4456522,1.6630435 0 0 1 2.475602,-1.636736 2.4456522,1.6630435 0 0 1 2.415301,1.677878 2.4456522,1.6630435 0 0 1 -2.459308,1.648055 2.4456522,1.6630435 0 0 1 -2.431891,-1.666761"
             transform="rotate(51.902085)" />
          <path
             transform="rotate(29.774143)"
             d="M 48.520113,6.206826 A 2.4456522,1.6630435 0 0 1 50.995714,4.5700897 2.4456522,1.6630435 0 0 1 53.411015,6.2479684 2.4456522,1.6630435 0 0 1 50.951707,7.8960232 2.4456522,1.6630435 0 0 1 48.519816,6.2292618"
             sodipodi:open="true"
             sodipodi:end="3.1438441"
             sodipodi:start="3.1573355"
             sodipodi:ry="1.6630435"
             sodipodi:rx="2.4456522"
             sodipodi:cy="6.233006"
             sodipodi:cx="50.965462"
             sodipodi:type="arc"
             id="path861"
             style="color:#000000;clip-rule:nonzero;display:inline;overflow:visible;visibility:visible;opacity:1;isolation:auto;mix-blend-mode:normal;color-interpolation:sRGB;color-interpolation-filters:linearRGB;solid-color:#000000;solid-opacity:1;fill:#c0c3c0;fill-opacity:1;fill-rule:nonzero;stroke:#42372e;stroke-width:0.1;stroke-linecap:round;stroke-linejoin:round;stroke-miterlimit:4;stroke-dasharray:none;stroke-dashoffset:0;stroke-opacity:1;color-rendering:auto;image-rendering:auto;shape-rendering:auto;text-rendering:auto;enable-background:accumulate"
             inkscape:transform-center-x="0.12209757"
             inkscape:transform-center-y="1.9505383" />
          <path
             inkscape:transform-center-y="2.5912183"
             inkscape:transform-center-x="0.15530786"
             style="color:#000000;clip-rule:nonzero;display:inline;overflow:visible;visibility:visible;opacity:1;isolation:auto;mix-blend-mode:normal;color-interpolation:sRGB;color-interpolation-filters:linearRGB;solid-color:#000000;solid-opacity:1;fill:#c0c3c0;fill-opacity:1;fill-rule:nonzero;stroke:#42372e;stroke-width:0.10003507;stroke-linecap:round;stroke-linejoin:round;stroke-miterlimit:4;stroke-dasharray:none;stroke-dashoffset:0;stroke-opacity:1;color-rendering:auto;image-rendering:auto;shape-rendering:auto;text-rendering:auto;enable-background:accumulate"
             id="path863"
             sodipodi:type="arc"
             sodipodi:cx="51.374104"
             sodipodi:cy="7.9917593"
             sodipodi:rx="3.145452"
             sodipodi:ry="2.1865044"
             sodipodi:start="3.1573355"
             sodipodi:end="3.1438441"
             sodipodi:open="true"
             d="M 48.229041,7.9573389 A 3.145452,2.1865044 0 0 1 51.413012,5.8054222 3.145452,2.1865044 0 0 1 54.519428,8.0114313 3.145452,2.1865044 0 0 1 51.356413,10.178229 3.145452,2.1865044 0 0 1 48.228659,7.9868365"
             transform="matrix(0.85843444,0.5129233,-0.48042486,0.87703589,0,0)" />
          <path
             inkscape:transform-center-y="1.5845036"
             inkscape:transform-center-x="-1.1440525"
             style="color:#000000;clip-rule:nonzero;display:inline;overflow:visible;visibility:visible;opacity:1;isolation:auto;mix-blend-mode:normal;color-interpolation:sRGB;color-interpolation-filters:linearRGB;solid-color:#000000;solid-opacity:1;fill:#c0c3c0;fill-opacity:1;fill-rule:nonzero;stroke:#42372e;stroke-width:0.1;stroke-linecap:round;stroke-linejoin:round;stroke-miterlimit:4;stroke-dasharray:none;stroke-dashoffset:0;stroke-opacity:1;color-rendering:auto;image-rendering:auto;shape-rendering:auto;text-rendering:auto;enable-background:accumulate"
             id="path865"
             sodipodi:type="arc"
             sodipodi:cx="30.938959"
             sodipodi:cy="40.341106"
             sodipodi:rx="2.4456522"
             sodipodi:ry="1.6630435"
             sodipodi:start="3.1573355"
             sodipodi:end="3.1438441"
             sodipodi:open="true"
             d="m 28.49361,40.314926 a 2.4456522,1.6630435 0 0 1 2.475601,-1.636736 2.4456522,1.6630435 0 0 1 2.415301,1.677879 2.4456522,1.6630435 0 0 1 -2.459308,1.648055 2.4456522,1.6630435 0 0 1 -2.431891,-1.666762"
             transform="rotate(-9.6379865)" />
          <path
             transform="rotate(-9.6379865)"
             d="M 4.6686077,33.755238 A 2.4456522,1.6630435 0 0 1 7.1442089,32.118502 2.4456522,1.6630435 0 0 1 9.5595102,33.79638 2.4456522,1.6630435 0 0 1 7.1002019,35.444435 2.4456522,1.6630435 0 0 1 4.6683109,33.777674"
             sodipodi:open="true"
             sodipodi:end="3.1438441"
             sodipodi:start="3.1573355"
             sodipodi:ry="1.6630435"
             sodipodi:rx="2.4456522"
             sodipodi:cy="33.781418"
             sodipodi:cx="7.1139569"
             sodipodi:type="arc"
             id="path867"
             style="color:#000000;clip-rule:nonzero;display:inline;overflow:visible;visibility:visible;opacity:1;isolation:auto;mix-blend-mode:normal;color-interpolation:sRGB;color-interpolation-filters:linearRGB;solid-color:#000000;solid-opacity:1;fill:#c0c3c0;fill-opacity:1;fill-rule:nonzero;stroke:#42372e;stroke-width:0.1;stroke-linecap:round;stroke-linejoin:round;stroke-miterlimit:4;stroke-dasharray:none;stroke-dashoffset:0;stroke-opacity:1;color-rendering:auto;image-rendering:auto;shape-rendering:auto;text-rendering:auto;enable-background:accumulate"
             inkscape:transform-center-x="-1.1440525"
             inkscape:transform-center-y="1.5845036" />
          <path
             inkscape:transform-center-y="0.98515122"
             inkscape:transform-center-x="-2.0168071"
             style="color:#000000;clip-rule:nonzero;display:inline;overflow:visible;visibility:visible;opacity:1;isolation:auto;mix-blend-mode:normal;color-interpolation:sRGB;color-interpolation-filters:linearRGB;solid-color:#000000;solid-opacity:1;fill:#c0c3c0;fill-opacity:1;fill-rule:nonzero;stroke:#42372e;stroke-width:0.10030433;stroke-linecap:round;stroke-linejoin:round;stroke-miterlimit:4;stroke-dasharray:none;stroke-dashoffset:0;stroke-opacity:1;color-rendering:auto;image-rendering:auto;shape-rendering:auto;text-rendering:auto;enable-background:accumulate"
             id="path869"
             sodipodi:type="arc"
             sodipodi:cx="-4.5050697"
             sodipodi:cy="36.827969"
             sodipodi:rx="3.3754361"
             sodipodi:ry="1.684603"
             sodipodi:start="3.1573355"
             sodipodi:end="3.1438441"
             sodipodi:open="true"
             d="m -7.8800875,36.801449 a 3.3754361,1.684603 0 0 1 3.4167708,-1.657954 3.3754361,1.684603 0 0 1 3.3335464,1.69963 3.3754361,1.684603 0 0 1 -3.3942838,1.66942 3.3754361,1.684603 0 0 1 -3.3564431,-1.688369"
             transform="matrix(0.90002915,-0.43582971,0.53211525,0.84667193,0,0)" />
          <path
             transform="rotate(-9.6379865)"
             d="m 10.051328,37.116921 a 2.4456522,1.6630435 0 0 1 2.475601,-1.636737 2.4456522,1.6630435 0 0 1 2.415302,1.677879 2.4456522,1.6630435 0 0 1 -2.459309,1.648055 2.4456522,1.6630435 0 0 1 -2.431891,-1.666762"
             sodipodi:open="true"
             sodipodi:end="3.1438441"
             sodipodi:start="3.1573355"
             sodipodi:ry="1.6630435"
             sodipodi:rx="2.4456522"
             sodipodi:cy="37.143101"
             sodipodi:cx="12.496677"
             sodipodi:type="arc"
             id="path871"
             style="color:#000000;clip-rule:nonzero;display:inline;overflow:visible;visibility:visible;opacity:1;isolation:auto;mix-blend-mode:normal;color-interpolation:sRGB;color-interpolation-filters:linearRGB;solid-color:#000000;solid-opacity:1;fill:#c0c3c0;fill-opacity:1;fill-rule:nonzero;stroke:#42372e;stroke-width:0.1;stroke-linecap:round;stroke-linejoin:round;stroke-miterlimit:4;stroke-dasharray:none;stroke-dashoffset:0;stroke-opacity:1;color-rendering:auto;image-rendering:auto;shape-rendering:auto;text-rendering:auto;enable-background:accumulate"
             inkscape:transform-center-x="-1.1440525"
             inkscape:transform-center-y="1.5845036" />
        </g>
      </g>
      <g
         transform="translate(0.07100609,-0.4260355)"
         id="g915">
        <g
           transform="matrix(0.65951765,0,0,0.65951765,-15.052667,8.3963974)"
           id="g905">
          <path
             style="fill:none;fill-rule:evenodd;stroke:#825d1f;stroke-width:1px;stroke-linecap:butt;stroke-linejoin:miter;stroke-opacity:1"
             d="m 57.017753,25.349112 c 0.71516,0.155845 0.115429,-0.257441 0.213018,-0.35503 0.01674,-0.01674 0.05427,0.01674 0.07101,0 0.03347,-0.03347 -0.03347,-0.108539 0,-0.142012 0.03347,-0.03347 0.108539,0.03347 0.142011,0 0.03347,-0.03347 -0.03347,-0.108539 0,-0.142011 0.01674,-0.01674 0.05427,0.01674 0.07101,0 0.01674,-0.01674 -0.01058,-0.04984 0,-0.07101 0.01497,-0.02994 0.05604,-0.04107 0.07101,-0.07101 0.01058,-0.02117 -0.01674,-0.05427 0,-0.07101 0.01674,-0.01674 0.04984,0.01058 0.07101,0 0.29551,-0.147755 -0.07591,0.0049 0.07101,-0.142012 0.01674,-0.01674 0.05427,0.01674 0.07101,0 0.01674,-0.01674 -0.01058,-0.04984 0,-0.07101 0.01497,-0.02994 0.04734,-0.04734 0.07101,-0.07101 0.02367,-0.02367 0.04107,-0.05604 0.07101,-0.07101 0.02117,-0.01058 0.05427,0.01674 0.07101,0 0.01674,-0.01674 -0.01674,-0.05427 0,-0.07101 0.01674,-0.01674 0.05427,0.01674 0.07101,0 0.01674,-0.01674 -0.01674,-0.05427 0,-0.07101 0.01674,-0.01674 0.05427,0.01674 0.07101,0 0.01674,-0.01674 -0.01674,-0.05427 0,-0.071 0.01674,-0.01674 0.05427,0.01674 0.071,0 0.01674,-0.01674 -0.01674,-0.05427 0,-0.07101 0.01674,-0.01674 0.05427,0.01674 0.07101,0 0.01674,-0.01674 -0.01674,-0.05427 0,-0.07101 0.01674,-0.01674 0.05427,0.01674 0.07101,0 0.01674,-0.01674 -0.01674,-0.05427 0,-0.07101 0.01674,-0.01674 0.04984,0.01058 0.07101,0 0.235497,-0.235497 -0.06695,0.03347 0.142012,-0.07101 0.02994,-0.01497 0.04107,-0.05604 0.07101,-0.07101 0.02117,-0.01058 0.05427,0.01674 0.07101,0 0.01674,-0.01674 -0.01674,-0.05427 0,-0.07101 0.01674,-0.01674 0.05427,0.01674 0.07101,0 0.01674,-0.01674 -0.01674,-0.05427 0,-0.07101 0.01674,-0.01674 0.05427,0.01674 0.07101,0 0.01674,-0.01674 -0.01674,-0.05427 0,-0.07101 0.01674,-0.01674 0.04984,0.01059 0.07101,0 0.02994,-0.01497 0.04107,-0.05604 0.07101,-0.07101 0.02117,-0.01059 0.05427,0.01674 0.071,0 0.01674,-0.01674 -0.01674,-0.05427 0,-0.07101 0.03347,-0.03347 0.10854,0.03347 0.142012,0 0.146914,-0.146913 -0.224503,0.0057 0.07101,-0.142012 0.02117,-0.01058 0.04984,0.01058 0.07101,0 0.02994,-0.01497 0.04107,-0.05604 0.07101,-0.071 0.02117,-0.01058 0.04984,0.01058 0.07101,0 0.02994,-0.01497 0.04107,-0.05604 0.07101,-0.07101 0.02117,-0.01058 0.04984,0.01058 0.07101,0 0.02994,-0.01497 0.04107,-0.05604 0.07101,-0.07101 0.02117,-0.01058 0.05427,0.01674 0.07101,0 0.01674,-0.01674 -0.01674,-0.05427 0,-0.07101 0.03347,-0.03347 0.09967,0.02117 0.142012,0 0.02994,-0.01497 0.04107,-0.05604 0.071,-0.07101 0.04234,-0.02117 0.10854,0.03347 0.142012,0 0.01674,-0.01674 0,-0.04734 0,-0.07101 0.02367,0 0.05427,0.01674 0.07101,0 0.01674,-0.01674 -0.02117,-0.06042 0,-0.07101 0.04234,-0.02117 0.09967,0.02117 0.142012,0 0.02117,-0.01058 -0.01674,-0.05427 0,-0.07101 0.03347,-0.03347 0.108539,0.03347 0.142012,0 0.01674,-0.01674 -0.01674,-0.05427 0,-0.07101 0.03347,-0.03347 0.108539,0.03347 0.142012,0 0.01674,-0.01674 -0.01674,-0.05427 0,-0.07101 0.03347,-0.03347 0.108539,0.03347 0.142012,0 0.01674,-0.01674 -0.01674,-0.05427 0,-0.07101 0.03347,-0.03347 0.108539,0.03347 0.142011,0 0.01674,-0.01674 -0.01674,-0.05427 0,-0.07101 0.03347,-0.03347 0.10854,0.03347 0.142012,0 0.01674,-0.01674 -0.01674,-0.05427 0,-0.071 0.03347,-0.03347 0.10854,0.03347 0.142012,0 0.01674,-0.01674 -0.01674,-0.05427 0,-0.07101 0.03347,-0.03347 0.108539,0.03347 0.142012,0 0.01674,-0.01674 -0.01674,-0.05427 0,-0.07101 0.01674,-0.01674 0.05427,0.01674 0.07101,0 0.01674,-0.01674 -0.01674,-0.05427 0,-0.07101 0.01674,-0.01674 0.04984,0.01058 0.07101,0 0.02994,-0.01497 0.04107,-0.05604 0.07101,-0.07101 0.02117,-0.01058 0.05427,0.01674 0.07101,0 0.01674,-0.01674 -0.01674,-0.05427 0,-0.07101 0.03347,-0.03347 0.09967,0.02117 0.142011,0 0.05988,-0.02994 0.08214,-0.112073 0.142012,-0.142012 0.04234,-0.02117 0.09967,0.02117 0.142012,0 0.02994,-0.01497 0.04107,-0.05604 0.07101,-0.07101 0.02117,-0.01058 0.05427,0.01674 0.07101,0 0.01674,-0.01674 -0.01674,-0.05427 0,-0.07101 0.03347,-0.03347 0.108539,0.03347 0.142012,0 0.01674,-0.01674 -0.01674,-0.05427 0,-0.07101 0.01674,-0.01674 0.05427,0.01674 0.07101,0 0.01674,-0.01674 -0.01674,-0.05427 0,-0.07101 0.01674,-0.01674 0.05427,0.01674 0.07101,0 0.01674,-0.01674 -0.01674,-0.05427 0,-0.071 0.01674,-0.01674 0.05427,0.01674 0.071,0 0.01674,-0.01674 -0.01674,-0.05427 0,-0.07101 0.03347,-0.03347 0.10854,0.03347 0.142012,0 0.01674,-0.01674 -0.01674,-0.05427 0,-0.07101 0.01674,-0.01674 0.05427,0.01674 0.07101,0 0.01674,-0.01674 -0.01674,-0.05427 0,-0.07101 0.01674,-0.01674 0.05427,0.01674 0.07101,0 0.01674,-0.01674 -0.01674,-0.05427 0,-0.07101 0.01674,-0.01674 0.04984,0.01058 0.07101,0 0.02994,-0.01497 0.04107,-0.05604 0.07101,-0.07101 0.02117,-0.01058 0.05427,0.01674 0.07101,0 0.01674,-0.01674 -0.01674,-0.05427 0,-0.07101 0.01674,-0.01674 0.05427,0.01674 0.07101,0 0.03347,-0.03347 -0.03347,-0.108539 0,-0.142012 0.03347,-0.03347 0.108539,0.03347 0.142012,0 0.01674,-0.01674 -0.01674,-0.05427 0,-0.07101 0.01674,-0.01674 0.05427,0.01674 0.07101,0 0.01674,-0.01674 -0.01674,-0.05427 0,-0.07101 0.01674,-0.01674 0.04984,0.01058 0.07101,0 0.06987,-0.03494 0.214151,-0.249087 0.284023,-0.284023 0.02117,-0.01058 0.05427,0.01674 0.07101,0 0.01674,-0.01674 -0.01674,-0.05427 0,-0.07101 0.01674,-0.01674 0.05427,0.01674 0.07101,0 0.01674,-0.01674 -0.01674,-0.05427 0,-0.07101 0.01674,-0.01674 0.05427,0.01674 0.07101,0 0.01674,-0.01674 -0.01674,-0.05427 0,-0.07101 0.01674,-0.01674 0.05427,0.01674 0.07101,0 0.01674,-0.01674 -0.01674,-0.05427 0,-0.07101 0.01674,-0.01674 0.04734,0 0.07101,0 0,-0.02367 -0.01674,-0.05427 0,-0.07101 0.01674,-0.01674 0.05427,0.01674 0.07101,0 0.01674,-0.01674 -0.01674,-0.05427 0,-0.07101 0.01674,-0.01674 0.05427,0.01674 0.07101,0 0.01674,-0.01674 -0.01674,-0.05427 0,-0.07101 0.01674,-0.01674 0.05427,0.01674 0.07101,0 0.01674,-0.01674 -0.01059,-0.04984 0,-0.07101 0.01497,-0.02994 0.05604,-0.04107 0.071,-0.07101 0.01059,-0.02117 -0.01674,-0.05427 0,-0.07101 0.01674,-0.01674 0.05427,0.01674 0.07101,0 0.01674,-0.01674 -0.01674,-0.05427 0,-0.071 0.01674,-0.01674 0.05427,0.01674 0.07101,0 0.01674,-0.01674 -0.01059,-0.04984 0,-0.07101 0.01497,-0.02994 0.05604,-0.04107 0.07101,-0.07101 0.01058,-0.02117 -0.01674,-0.05427 0,-0.07101 0.01674,-0.01674 0.05427,0.01674 0.07101,0 0.01674,-0.01674 -0.01674,-0.05427 0,-0.07101 0.01674,-0.01674 0.05427,0.01674 0.07101,0 0.03347,-0.03347 -0.03347,-0.108539 0,-0.142012 0.01674,-0.01674 0.05427,0.01674 0.07101,0 0.03347,-0.03347 -0.03347,-0.108539 0,-0.142012 0.01674,-0.01674 0.05427,0.01674 0.07101,0 0.03347,-0.03347 -0.03347,-0.108539 0,-0.142012 0.01674,-0.01674 0.05427,0.01674 0.07101,0 0.03347,-0.03347 -0.03347,-0.108539 0,-0.142011 0.01674,-0.01674 0.04984,0.01058 0.07101,0 0.295509,-0.147755 -0.07591,0.0049 0.07101,-0.142012 0.01674,-0.01674 0.05427,0.01674 0.07101,0 0.03347,-0.03347 -0.03347,-0.10854 0,-0.142012 0.01674,-0.01674 0.05427,0.01674 0.071,0 0.03347,-0.03347 -0.03347,-0.108539 0,-0.142012 0.01674,-0.01674 0.04734,0 0.07101,0 0,-0.02367 -0.01674,-0.05427 0,-0.07101 0.01674,-0.01674 0.05427,0.01674 0.07101,0 0.03347,-0.03347 -0.03347,-0.108539 0,-0.142012 0.01674,-0.01674 0.05427,0.01674 0.07101,0 0.03347,-0.03347 -0.02117,-0.09967 0,-0.142012 0.01497,-0.02994 0.05604,-0.04107 0.07101,-0.07101 0.01059,-0.02117 -0.01674,-0.05427 0,-0.071 0.01674,-0.01674 0.05427,0.01674 0.07101,0 0.01674,-0.01674 0,-0.04734 0,-0.07101 0.02367,0 0.05427,0.01674 0.07101,0 0.0355,-0.0355 -0.0355,-0.177515 0,-0.213018 0.01674,-0.01674 0.05427,0.01674 0.07101,0 0.03347,-0.03347 -0.03347,-0.108539 0,-0.142012 0.01674,-0.01674 0.05427,0.01674 0.07101,0 0.0355,-0.0355 -0.0355,-0.177515 0,-0.213018 0.01674,-0.01674 0.05427,0.01674 0.07101,0 0.01674,-0.01674 -0.01674,-0.05427 0,-0.07101 0.01674,-0.01674 0.05427,0.01674 0.07101,0 0.01452,-0.01452 -0.01408,-0.184864 0,-0.213017 0.01497,-0.02994 0.05604,-0.04107 0.07101,-0.07101 0.01408,-0.02815 -0.01452,-0.198502 0,-0.213018 0.01674,-0.01674 0.05427,0.01674 0.07101,0 0.01709,-0.01709 -0.01709,-0.266937 0,-0.284024 0.189349,0 -0.02367,0.02367 0.071,-0.07101 0.01674,-0.01674 0.05427,0.01674 0.07101,0 0.0355,-0.0355 -0.0355,-0.177514 0,-0.213017 0.01674,-0.01674 0.05427,0.01674 0.07101,0 0.0355,-0.0355 -0.0355,-0.177515 0,-0.213018 0.09468,-0.09468 0.07101,0.118343 0.07101,-0.07101"
             id="path878"
             inkscape:connector-curvature="0" />
          <path
             style="color:#000000;clip-rule:nonzero;display:inline;overflow:visible;visibility:visible;opacity:1;isolation:auto;mix-blend-mode:normal;color-interpolation:sRGB;color-interpolation-filters:linearRGB;solid-color:#000000;solid-opacity:1;fill:#f6f6f6;fill-opacity:0.49803922;fill-rule:nonzero;stroke:#9c7025;stroke-width:1.39999998;stroke-linecap:round;stroke-linejoin:round;stroke-miterlimit:4;stroke-dasharray:none;stroke-dashoffset:0;stroke-opacity:0.67880087;color-rendering:auto;image-rendering:auto;shape-rendering:auto;text-rendering:auto;enable-background:accumulate"
             id="path880"
             sodipodi:type="arc"
             sodipodi:cx="67.562134"
             sodipodi:cy="18.355028"
             sodipodi:rx="1.3846154"
             sodipodi:ry="1.3846154"
             sodipodi:start="3.1342972"
             sodipodi:end="3.1316443"
             sodipodi:open="true"
             d="m 66.177555,18.365129 a 1.3846154,1.3846154 0 0 1 1.373559,-1.394672 1.3846154,1.3846154 0 0 1 1.395584,1.372633 1.3846154,1.3846154 0 0 1 -1.371708,1.396494 1.3846154,1.3846154 0 0 1 -1.397403,-1.370781" />
          <path
             d="m 63.195309,19.785248 a 1.3846154,1.3846154 0 0 1 1.373559,-1.394673 1.3846154,1.3846154 0 0 1 1.395583,1.372634 1.3846154,1.3846154 0 0 1 -1.371707,1.396493 1.3846154,1.3846154 0 0 1 -1.397404,-1.370781"
             sodipodi:open="true"
             sodipodi:end="3.1316443"
             sodipodi:start="3.1342972"
             sodipodi:ry="1.3846154"
             sodipodi:rx="1.3846154"
             sodipodi:cy="19.775146"
             sodipodi:cx="64.579887"
             sodipodi:type="arc"
             id="path882"
             style="color:#000000;clip-rule:nonzero;display:inline;overflow:visible;visibility:visible;opacity:1;isolation:auto;mix-blend-mode:normal;color-interpolation:sRGB;color-interpolation-filters:linearRGB;solid-color:#000000;solid-opacity:1;fill:#f6f6f6;fill-opacity:0.49803922;fill-rule:nonzero;stroke:#9c7025;stroke-width:1.39999998;stroke-linecap:round;stroke-linejoin:round;stroke-miterlimit:4;stroke-dasharray:none;stroke-dashoffset:0;stroke-opacity:0.67880087;color-rendering:auto;image-rendering:auto;shape-rendering:auto;text-rendering:auto;enable-background:accumulate" />
          <path
             style="color:#000000;clip-rule:nonzero;display:inline;overflow:visible;visibility:visible;opacity:1;isolation:auto;mix-blend-mode:normal;color-interpolation:sRGB;color-interpolation-filters:linearRGB;solid-color:#000000;solid-opacity:1;fill:#f6f6f6;fill-opacity:0.49803922;fill-rule:nonzero;stroke:#9c7025;stroke-width:1.39999998;stroke-linecap:round;stroke-linejoin:round;stroke-miterlimit:4;stroke-dasharray:none;stroke-dashoffset:0;stroke-opacity:0.67880087;color-rendering:auto;image-rendering:auto;shape-rendering:auto;text-rendering:auto;enable-background:accumulate"
             id="path884"
             sodipodi:type="arc"
             sodipodi:cx="64.082848"
             sodipodi:cy="23.325443"
             sodipodi:rx="1.3846154"
             sodipodi:ry="1.3846154"
             sodipodi:start="3.1342972"
             sodipodi:end="3.1316443"
             sodipodi:open="true"
             d="m 62.698269,23.335545 a 1.3846154,1.3846154 0 0 1 1.373559,-1.394673 1.3846154,1.3846154 0 0 1 1.395584,1.372633 1.3846154,1.3846154 0 0 1 -1.371708,1.396494 1.3846154,1.3846154 0 0 1 -1.397403,-1.370781" />
          <path
             d="m 59.147972,24.045605 a 1.3846154,1.3846154 0 0 1 1.373559,-1.394673 1.3846154,1.3846154 0 0 1 1.395584,1.372634 1.3846154,1.3846154 0 0 1 -1.371708,1.396493 1.3846154,1.3846154 0 0 1 -1.397403,-1.370781"
             sodipodi:open="true"
             sodipodi:end="3.1316443"
             sodipodi:start="3.1342972"
             sodipodi:ry="1.3846154"
             sodipodi:rx="1.3846154"
             sodipodi:cy="24.035503"
             sodipodi:cx="60.532551"
             sodipodi:type="arc"
             id="path886"
             style="color:#000000;clip-rule:nonzero;display:inline;overflow:visible;visibility:visible;opacity:1;isolation:auto;mix-blend-mode:normal;color-interpolation:sRGB;color-interpolation-filters:linearRGB;solid-color:#000000;solid-opacity:1;fill:#f6f6f6;fill-opacity:0.49803922;fill-rule:nonzero;stroke:#9c7025;stroke-width:1.39999998;stroke-linecap:round;stroke-linejoin:round;stroke-miterlimit:4;stroke-dasharray:none;stroke-dashoffset:0;stroke-opacity:0.67880087;color-rendering:auto;image-rendering:auto;shape-rendering:auto;text-rendering:auto;enable-background:accumulate" />
          <path
             style="color:#000000;clip-rule:nonzero;display:inline;overflow:visible;visibility:visible;opacity:1;isolation:auto;mix-blend-mode:normal;color-interpolation:sRGB;color-interpolation-filters:linearRGB;solid-color:#000000;solid-opacity:1;fill:#f6f6f6;fill-opacity:0.49803922;fill-rule:nonzero;stroke:#9c7025;stroke-width:1.39999998;stroke-linecap:round;stroke-linejoin:round;stroke-miterlimit:4;stroke-dasharray:none;stroke-dashoffset:0;stroke-opacity:0.67880087;color-rendering:auto;image-rendering:auto;shape-rendering:auto;text-rendering:auto;enable-background:accumulate"
             id="path888"
             sodipodi:type="arc"
             sodipodi:cx="59.893497"
             sodipodi:cy="20.27219"
             sodipodi:rx="1.3846154"
             sodipodi:ry="1.3846154"
             sodipodi:start="3.1342972"
             sodipodi:end="3.1316443"
             sodipodi:open="true"
             d="m 58.508919,20.282291 a 1.3846154,1.3846154 0 0 1 1.373559,-1.394672 1.3846154,1.3846154 0 0 1 1.395583,1.372633 1.3846154,1.3846154 0 0 1 -1.371707,1.396494 1.3846154,1.3846154 0 0 1 -1.397403,-1.370781" />
          <path
             d="m 61.704186,17.229036 a 1.3846154,1.3846154 0 0 1 1.373559,-1.394673 1.3846154,1.3846154 0 0 1 1.395583,1.372634 1.3846154,1.3846154 0 0 1 -1.371708,1.396494 1.3846154,1.3846154 0 0 1 -1.397403,-1.370782"
             sodipodi:open="true"
             sodipodi:end="3.1316443"
             sodipodi:start="3.1342972"
             sodipodi:ry="1.3846154"
             sodipodi:rx="1.3846154"
             sodipodi:cy="17.218935"
             sodipodi:cx="63.088764"
             sodipodi:type="arc"
             id="path890"
             style="color:#000000;clip-rule:nonzero;display:inline;overflow:visible;visibility:visible;opacity:1;isolation:auto;mix-blend-mode:normal;color-interpolation:sRGB;color-interpolation-filters:linearRGB;solid-color:#000000;solid-opacity:1;fill:#f6f6f6;fill-opacity:0.49803922;fill-rule:nonzero;stroke:#9c7025;stroke-width:1.39999998;stroke-linecap:round;stroke-linejoin:round;stroke-miterlimit:4;stroke-dasharray:none;stroke-dashoffset:0;stroke-opacity:0.67880087;color-rendering:auto;image-rendering:auto;shape-rendering:auto;text-rendering:auto;enable-background:accumulate" />
          <path
             style="color:#000000;clip-rule:nonzero;display:inline;overflow:visible;visibility:visible;opacity:1;isolation:auto;mix-blend-mode:normal;color-interpolation:sRGB;color-interpolation-filters:linearRGB;solid-color:#000000;solid-opacity:1;fill:#f6f6f6;fill-opacity:0.49803922;fill-rule:nonzero;stroke:#9c7025;stroke-width:1.39999998;stroke-linecap:round;stroke-linejoin:round;stroke-miterlimit:4;stroke-dasharray:none;stroke-dashoffset:0;stroke-opacity:0.67880087;color-rendering:auto;image-rendering:auto;shape-rendering:auto;text-rendering:auto;enable-background:accumulate"
             id="path892"
             sodipodi:type="arc"
             sodipodi:cx="65.289948"
             sodipodi:cy="14.023668"
             sodipodi:rx="1.3846154"
             sodipodi:ry="1.3846154"
             sodipodi:start="3.1342972"
             sodipodi:end="3.1316443"
             sodipodi:open="true"
             d="m 63.905369,14.03377 a 1.3846154,1.3846154 0 0 1 1.373559,-1.394673 1.3846154,1.3846154 0 0 1 1.395583,1.372633 1.3846154,1.3846154 0 0 1 -1.371707,1.396494 1.3846154,1.3846154 0 0 1 -1.397403,-1.370781" />
          <path
             d="m 67.242649,14.601817 a 1.3846154,1.3846154 0 0 1 1.373559,-1.394673 1.3846154,1.3846154 0 0 1 1.395584,1.372634 1.3846154,1.3846154 0 0 1 -1.371708,1.396494 1.3846154,1.3846154 0 0 1 -1.397403,-1.370782"
             sodipodi:open="true"
             sodipodi:end="3.1316443"
             sodipodi:start="3.1342972"
             sodipodi:ry="1.3846154"
             sodipodi:rx="1.3846154"
             sodipodi:cy="14.591716"
             sodipodi:cx="68.627228"
             sodipodi:type="arc"
             id="path894"
             style="color:#000000;clip-rule:nonzero;display:inline;overflow:visible;visibility:visible;opacity:1;isolation:auto;mix-blend-mode:normal;color-interpolation:sRGB;color-interpolation-filters:linearRGB;solid-color:#000000;solid-opacity:1;fill:#f6f6f6;fill-opacity:0.49803922;fill-rule:nonzero;stroke:#9c7025;stroke-width:1.39999998;stroke-linecap:round;stroke-linejoin:round;stroke-miterlimit:4;stroke-dasharray:none;stroke-dashoffset:0;stroke-opacity:0.67880087;color-rendering:auto;image-rendering:auto;shape-rendering:auto;text-rendering:auto;enable-background:accumulate" />
        </g>
      </g>
    </g>
  </g>
</svg>
